AtkinsonHyperlegibleMono-RegularItalic.sfdir
StartChar: quotedbl
Encoding: 34 34 284
Width: 632
GlyphClass: 1
Flags: W
LayerCount: 2
Fore
SplineSet
270 668 m 1,0,-1
 357 668 l 1,1,-1
 290 429 l 1,2,-1
 236 429 l 1,3,-1
 270 668 l 1,0,-1
453 668 m 1,4,-1
 540 668 l 1,5,-1
 473 429 l 1,6,-1
 419 429 l 1,7,-1
 453 668 l 1,4,-1
EndSplineSet
EndChar
StartChar: quotesingle
Encoding: 39 39 285
Width: 632
GlyphClass: 1
Flags: W
LayerCount: 2
Fore
SplineSet
362 668 m 1,0,-1
 449 668 l 1,1,-1
 382 429 l 1,2,-1
 328 429 l 1,3,-1
 362 668 l 1,0,-1
EndSplineSet
EndChar
StartChar: parenleft
Encoding: 40 40 268
Width: 632
GlyphClass: 1
Flags: W
LayerCount: 2
Fore
SplineSet
207 8 m 128,-1,1
 175 98 175 98 175 191 c 0,2,3
 175 342 175 342 258.5 476.5 c 128,-1,4
 342 611 342 611 485 708 c 1,5,-1
 599 708 l 1,6,7
 449 611 449 611 354 478.5 c 128,-1,8
 259 346 259 346 259 196 c 0,9,10
 259 106 259 106 294.5 14.5 c 128,-1,11
 330 -77 330 -77 397 -162 c 1,12,-1
 301 -162 l 1,13,0
 239 -82 239 -82 207 8 c 128,-1,1
EndSplineSet
EndChar
StartChar: parenright
Encoding: 41 41 269
Width: 632
GlyphClass: 1
Flags: W
LayerCount: 2
Fore
SplineSet
289 67.5 m 128,-1,1
 384 200 384 200 384 350 c 0,2,3
 384 440 384 440 348.5 531.5 c 128,-1,4
 313 623 313 623 246 708 c 1,5,-1
 342 708 l 1,6,7
 404 628 404 628 436 538 c 128,-1,8
 468 448 468 448 468 355 c 0,9,10
 468 204 468 204 384.5 69.5 c 128,-1,11
 301 -65 301 -65 158 -162 c 1,12,-1
 44 -162 l 1,13,0
 194 -65 194 -65 289 67.5 c 128,-1,1
EndSplineSet
EndChar
StartChar: asterisk
Encoding: 42 42 260
Width: 632
GlyphClass: 1
Flags: W
LayerCount: 2
Fore
SplineSet
206 367 m 1,0,-1
 320 480 l 1,1,-1
 197 534 l 1,2,-1
 226 587 l 1,3,-1
 348 530 l 1,4,-1
 377 667 l 1,5,-1
 433 667 l 1,6,-1
 404 525 l 1,7,-1
 543 554 l 1,8,-1
 548 497 l 1,9,-1
 410 470 l 1,10,-1
 464 358 l 1,11,-1
 414 329 l 1,12,-1
 360 439 l 1,13,-1
 248 329 l 1,14,-1
 206 367 l 1,0,-1
EndSplineSet
EndChar
StartChar: plus
Encoding: 43 43 311
Width: 632
GlyphClass: 1
Flags: W
LayerCount: 2
Fore
SplineSet
271 211 m 1,0,-1
 57 211 l 1,1,-1
 73 285 l 1,2,-1
 286 285 l 1,3,-1
 332 496 l 1,4,-1
 406 496 l 1,5,-1
 361 285 l 1,6,-1
 575 285 l 1,7,-1
 559 211 l 1,8,-1
 345 211 l 1,9,-1
 300 0 l 1,10,-1
 226 0 l 1,11,-1
 271 211 l 1,0,-1
EndSplineSet
EndChar
StartChar: comma
Encoding: 44 44 250
Width: 632
GlyphClass: 1
Flags: W
LayerCount: 2
Fore
SplineSet
220 18 m 128,-1,1
 208 36 208 36 208 58 c 0,2,3
 208 87 208 87 228.5 107.5 c 128,-1,4
 249 128 249 128 278 128 c 0,5,6
 308 128 308 128 327.5 108 c 128,-1,7
 347 88 347 88 347 62 c 0,8,9
 347 49 347 49 343 38.5 c 128,-1,10
 339 28 339 28 330 14 c 2,11,-1
 231 -145 l 1,12,-1
 168 -145 l 1,13,-1
 254 -9 l 1,14,0
 232 0 232 0 220 18 c 128,-1,1
EndSplineSet
EndChar
StartChar: one
Encoding: 49 49 230
Width: 632
GlyphClass: 5
Flags: W
LayerCount: 2
Fore
SplineSet
78 72 m 1,0,-1
 249 72 l 1,1,-1
 342 507 l 1,2,-1
 169 507 l 1,3,-1
 183 572 l 1,4,5
 258 571 258 571 294 577 c 128,-1,6
 330 583 330 583 352.5 603 c 128,-1,7
 375 623 375 623 400 668 c 1,8,-1
 460 668 l 1,9,-1
 333 72 l 1,10,-1
 487 72 l 1,11,-1
 472 0 l 1,12,-1
 63 0 l 1,13,-1
 78 72 l 1,0,-1
EndSplineSet
Substitution2: "'sups' Superscript in Latin lookup 6 subtable" uni00B9
AlternateSubs2: "'aalt' Access All Alternates in Latin lookup 0 subtable" uni00B9
EndChar
StartChar: two
Encoding: 50 50 231
Width: 632
GlyphClass: 5
Flags: W
LayerCount: 2
Fore
SplineSet
87 97 m 2,0,1
 215 179 215 179 298 239 c 128,-1,2
 381 299 381 299 441.5 369.5 c 128,-1,3
 502 440 502 440 502 507 c 0,4,5
 502 554 502 554 469.5 582.5 c 128,-1,6
 437 611 437 611 385 611 c 0,7,8
 335 611 335 611 294.5 584 c 128,-1,9
 254 557 254 557 232 498 c 1,10,-1
 152 527 l 1,11,12
 184 603 184 603 246 641.5 c 128,-1,13
 308 680 308 680 387 680 c 0,14,15
 476 680 476 680 532.5 635.5 c 128,-1,16
 589 591 589 591 589 515 c 0,17,18
 589 429 589 429 525.5 349.5 c 128,-1,19
 462 270 462 270 382 211.5 c 128,-1,20
 302 153 302 153 196 89 c 2,21,-1
 173 75 l 1,22,-1
 520 75 l 1,23,-1
 504 0 l 1,24,-1
 33 0 l 1,25,-1
 49 73 l 1,26,-1
 87 97 l 2,0,1
EndSplineSet
Substitution2: "'sups' Superscript in Latin lookup 6 subtable" uni00B2
AlternateSubs2: "'aalt' Access All Alternates in Latin lookup 0 subtable" uni00B2
EndChar
StartChar: three
Encoding: 51 51 232
Width: 632
GlyphClass: 5
Flags: W
LayerCount: 2
Fore
SplineSet
140.5 31 m 128,-1,1
 80 74 80 74 71 153 c 1,2,-1
 153 175 l 1,3,4
 159 116 159 116 198.5 86.5 c 128,-1,5
 238 57 238 57 297 57 c 0,6,7
 366 57 366 57 411.5 96.5 c 128,-1,8
 457 136 457 136 457 200 c 0,9,10
 457 258 457 258 410.5 288.5 c 128,-1,11
 364 319 364 319 302 319 c 2,12,-1
 285 319 l 1,13,-1
 299 385 l 1,14,-1
 358 385 l 2,15,16
 403 385 403 385 436 403 c 128,-1,17
 469 421 469 421 486.5 450 c 128,-1,18
 504 479 504 479 504 513 c 0,19,20
 504 558 504 558 468.5 584.5 c 128,-1,21
 433 611 433 611 381 611 c 0,22,23
 327 611 327 611 285 582 c 128,-1,24
 243 553 243 553 225 500 c 1,25,-1
 146 527 l 1,26,27
 178 603 178 603 242 641.5 c 128,-1,28
 306 680 306 680 385 680 c 0,29,30
 441 680 441 680 487.5 661.5 c 128,-1,31
 534 643 534 643 562 608 c 128,-1,32
 590 573 590 573 590 524 c 0,33,34
 590 459 590 459 550 407.5 c 128,-1,35
 510 356 510 356 438 344 c 1,36,37
 488 329 488 329 516 289.5 c 128,-1,38
 544 250 544 250 544 200 c 0,39,40
 544 138 544 138 510.5 89.5 c 128,-1,41
 477 41 477 41 419.5 14.5 c 128,-1,42
 362 -12 362 -12 293 -12 c 0,43,0
 201 -12 201 -12 140.5 31 c 128,-1,1
EndSplineSet
Substitution2: "'sups' Superscript in Latin lookup 6 subtable" uni00B3
AlternateSubs2: "'aalt' Access All Alternates in Latin lookup 0 subtable" uni00B3
EndChar
StartChar: four
Encoding: 52 52 233
Width: 632
GlyphClass: 5
Flags: W
LayerCount: 2
Fore
SplineSet
368 166 m 1,0,-1
 36 166 l 1,1,-1
 52 244 l 1,2,-1
 466 668 l 1,3,-1
 560 668 l 1,4,-1
 469 243 l 1,5,-1
 578 243 l 1,6,-1
 562 166 l 1,7,-1
 453 166 l 1,8,-1
 418 0 l 1,9,-1
 332 0 l 1,10,-1
 368 166 l 1,0,-1
384 243 m 1,11,-1
 449 550 l 1,12,-1
 445 550 l 1,13,-1
 146 242 l 1,14,-1
 384 243 l 1,11,-1
EndSplineSet
EndChar
StartChar: eight
Encoding: 56 56 237
Width: 632
GlyphClass: 1
Flags: W
LayerCount: 2
Fore
SplineSet
176 11.5 m 128,-1,1
 121 34 121 34 88.5 76 c 128,-1,2
 56 118 56 118 56 175 c 0,3,4
 56 249 56 249 103 303.5 c 128,-1,5
 150 358 150 358 226 379 c 1,6,7
 207 398 207 398 196.5 425 c 128,-1,8
 186 452 186 452 186 481 c 0,9,10
 186 534 186 534 213 580 c 128,-1,11
 240 626 240 626 286.5 654 c 128,-1,12
 333 682 333 682 387 682 c 0,13,14
 436 682 436 682 473 660.5 c 128,-1,15
 510 639 510 639 530.5 602.5 c 128,-1,16
 551 566 551 566 551 522 c 0,17,18
 551 471 551 471 525 427 c 128,-1,19
 499 383 499 383 455 357 c 1,20,21
 499 333 499 333 524.5 294.5 c 128,-1,22
 550 256 550 256 550 207 c 0,23,24
 550 143 550 143 515 93 c 128,-1,25
 480 43 480 43 422 16 c 128,-1,26
 364 -11 364 -11 296 -11 c 0,27,0
 231 -11 231 -11 176 11.5 c 128,-1,1
415 100 m 128,-1,29
 463 138 463 138 463 200 c 0,30,31
 463 254 463 254 418.5 287.5 c 128,-1,32
 374 321 374 321 309 321 c 0,33,34
 265 321 265 321 227 304 c 128,-1,35
 189 287 189 287 166.5 255.5 c 128,-1,36
 144 224 144 224 144 182 c 0,37,38
 144 126 144 126 188.5 94 c 128,-1,39
 233 62 233 62 298 62 c 0,40,28
 367 62 367 62 415 100 c 128,-1,29
415 408.5 m 128,-1,42
 443 425 443 425 460 453 c 128,-1,43
 477 481 477 481 477 513 c 0,44,45
 477 553 477 553 450.5 580.5 c 128,-1,46
 424 608 424 608 381 608 c 0,47,48
 349 608 349 608 321.5 591.5 c 128,-1,49
 294 575 294 575 277 547.5 c 128,-1,50
 260 520 260 520 260 488 c 0,51,52
 260 448 260 448 286.5 420 c 128,-1,53
 313 392 313 392 356 392 c 0,54,41
 387 392 387 392 415 408.5 c 128,-1,42
EndSplineSet
EndChar
StartChar: nine
Encoding: 57 57 238
Width: 632
GlyphClass: 1
Flags: W
LayerCount: 2
Fore
SplineSet
318 207 m 0,1,2
 264 207 264 207 216 233.5 c 128,-1,3
 168 260 168 260 139 307.5 c 128,-1,4
 110 355 110 355 110 414 c 0,5,6
 110 484 110 484 145 546 c 128,-1,7
 180 608 180 608 240.5 645 c 128,-1,8
 301 682 301 682 373 682 c 0,9,10
 436 682 436 682 486 653.5 c 128,-1,11
 536 625 536 625 563.5 576 c 128,-1,12
 591 527 591 527 591 468 c 0,13,14
 591 412 591 412 567 362 c 128,-1,15
 543 312 543 312 493 253 c 2,16,-1
 280 0 l 1,17,-1
 179 0 l 1,18,-1
 364 212 l 1,19,0
 345 207 345 207 318 207 c 0,1,2
421.5 306 m 128,-1,21
 462 330 462 330 486.5 371 c 128,-1,22
 511 412 511 412 511 459 c 0,23,24
 511 498 511 498 493 531 c 128,-1,25
 475 564 475 564 442.5 583.5 c 128,-1,26
 410 603 410 603 368 603 c 0,27,28
 322 603 322 603 280.5 578.5 c 128,-1,29
 239 554 239 554 214 512.5 c 128,-1,30
 189 471 189 471 189 423 c 0,31,32
 189 362 189 362 230.5 322 c 128,-1,33
 272 282 272 282 334 282 c 0,34,20
 381 282 381 282 421.5 306 c 128,-1,21
EndSplineSet
EndChar
StartChar: less
Encoding: 60 60 318
Width: 632
GlyphClass: 1
Flags: W
LayerCount: 2
Fore
SplineSet
73 216 m 1,0,-1
 87 280 l 1,1,-1
 604 494 l 1,2,-1
 585 403 l 1,3,-1
 181 243 l 1,4,-1
 516 83 l 1,5,-1
 499 3 l 1,6,-1
 73 216 l 1,0,-1
EndSplineSet
EndChar
StartChar: greater
Encoding: 62 62 317
Width: 632
GlyphClass: 1
Flags: W
LayerCount: 2
Fore
SplineSet
47 93 m 1,0,-1
 452 253 l 1,1,-1
 116 413 l 1,2,-1
 133 494 l 1,3,-1
 559 280 l 1,4,-1
 545 216 l 1,5,-1
 28 3 l 1,6,-1
 47 93 l 1,0,-1
EndSplineSet
EndChar
StartChar: question
Encoding: 63 63 256
Width: 632
GlyphClass: 1
Flags: W
LayerCount: 2
Fore
SplineSet
284.5 311.5 m 128,-1,1
 313 345 313 345 382 382 c 0,2,3
 439 412 439 412 471.5 444 c 128,-1,4
 504 476 504 476 504 518 c 0,5,6
 504 557 504 557 469.5 583 c 128,-1,7
 435 609 435 609 382 609 c 0,8,9
 328 609 328 609 291 577 c 128,-1,10
 254 545 254 545 240 502 c 1,11,-1
 160 525 l 1,12,13
 183 599 183 599 245 639.5 c 128,-1,14
 307 680 307 680 392 680 c 0,15,16
 442 680 442 680 488 662 c 128,-1,17
 534 644 534 644 562.5 608.5 c 128,-1,18
 591 573 591 573 591 525 c 0,19,20
 591 456 591 456 547.5 409 c 128,-1,21
 504 362 504 362 422 319 c 0,22,23
 371 291 371 291 353 271.5 c 128,-1,24
 335 252 335 252 328 219 c 2,25,-1
 320 184 l 1,26,-1
 235 184 l 1,27,-1
 242 218 l 2,28,0
 256 278 256 278 284.5 311.5 c 128,-1,1
205.5 6.5 m 128,-1,30
 187 25 187 25 187 51 c 256,31,32
 187 77 187 77 205.5 95.5 c 128,-1,33
 224 114 224 114 250 114 c 256,34,35
 276 114 276 114 294.5 95.5 c 128,-1,36
 313 77 313 77 313 51 c 256,37,38
 313 25 313 25 294.5 6.5 c 128,-1,39
 276 -12 276 -12 250 -12 c 256,40,29
 224 -12 224 -12 205.5 6.5 c 128,-1,30
EndSplineSet
EndChar
StartChar: at
Encoding: 64 64 288
Width: 632
GlyphClass: 1
Flags: W
LayerCount: 2
Fore
SplineSet
134.5 -58.5 m 128,-1,1
 74 -21 74 -21 42 45 c 128,-1,2
 10 111 10 111 10 193 c 0,3,4
 10 297 10 297 55 392 c 128,-1,5
 100 487 100 487 181 545.5 c 128,-1,6
 262 604 262 604 365 604 c 0,7,8
 451 604 451 604 511.5 568 c 128,-1,9
 572 532 572 532 602 471.5 c 128,-1,10
 632 411 632 411 632 339 c 0,11,12
 632 285 632 285 613 223.5 c 128,-1,13
 594 162 594 162 555.5 119 c 128,-1,14
 517 76 517 76 461 76 c 0,15,16
 435 76 435 76 411.5 91 c 128,-1,17
 388 106 388 106 379 132 c 1,18,19
 330 75 330 75 270 75 c 0,20,21
 214 75 214 75 185 113.5 c 128,-1,22
 156 152 156 152 156 208 c 0,23,24
 156 262 156 262 180 316 c 128,-1,25
 204 370 204 370 249.5 404.5 c 128,-1,26
 295 439 295 439 354 439 c 0,27,28
 415 439 415 439 479 407 c 1,29,-1
 436 205 l 2,30,31
 434 191 434 191 434 182 c 0,32,33
 434 132 434 132 475 132 c 0,34,35
 507 132 507 132 529.5 166.5 c 128,-1,36
 552 201 552 201 563.5 249 c 128,-1,37
 575 297 575 297 575 334 c 0,38,39
 575 428 575 428 521 489 c 128,-1,40
 467 550 467 550 359 550 c 0,41,42
 265 550 265 550 199 494 c 128,-1,43
 133 438 133 438 100.5 355.5 c 128,-1,44
 68 273 68 273 68 195 c 0,45,46
 68 127 68 127 92.5 73.5 c 128,-1,47
 117 20 117 20 166 -11 c 128,-1,48
 215 -42 215 -42 284 -42 c 0,49,50
 332 -42 332 -42 386 -18 c 1,51,-1
 373 -81 l 1,52,53
 327 -96 327 -96 278 -96 c 0,54,0
 195 -96 195 -96 134.5 -58.5 c 128,-1,1
342.5 159.5 m 128,-1,56
 371 186 371 186 380 227 c 2,57,-1
 409 369 l 1,58,59
 381 381 381 381 351 381 c 0,60,61
 310 381 310 381 280.5 355 c 128,-1,62
 251 329 251 329 236 289 c 128,-1,63
 221 249 221 249 221 210 c 0,64,65
 221 175 221 175 236.5 154 c 128,-1,66
 252 133 252 133 283 133 c 256,67,55
 314 133 314 133 342.5 159.5 c 128,-1,56
EndSplineSet
EndChar
StartChar: E
Encoding: 69 69 23
Width: 632
GlyphClass: 2
Flags: W
AnchorPoint: "Anchor-2" 494 10 basechar 0
AnchorPoint: "Anchor-1" 424 668 basechar 0
AnchorPoint: "Anchor-0" 264 0 basechar 0
LayerCount: 2
Fore
SplineSet
212 668 m 1,0,-1
 630 668 l 1,1,-1
 614 591 l 1,2,-1
 284 591 l 1,3,-1
 239 382 l 1,4,-1
 487 382 l 1,5,-1
 471 306 l 1,6,-1
 223 306 l 1,7,-1
 175 77 l 1,8,-1
 508 77 l 1,9,-1
 492 0 l 1,10,-1
 70 0 l 1,11,-1
 212 668 l 1,0,-1
EndSplineSet
EndChar
StartChar: F
Encoding: 70 70 32
Width: 632
GlyphClass: 2
Flags: W
AnchorPoint: "Anchor-1" 399 668 basechar 0
AnchorPoint: "Anchor-0" 257 0 basechar 0
LayerCount: 2
Fore
SplineSet
214 668 m 1,0,-1
 634 668 l 1,1,-1
 618 591 l 1,2,-1
 286 591 l 1,3,-1
 239 372 l 1,4,-1
 567 372 l 1,5,-1
 551 295 l 1,6,-1
 223 295 l 1,7,-1
 160 0 l 1,8,-1
 72 0 l 1,9,-1
 214 668 l 1,0,-1
EndSplineSet
EndChar
StartChar: H
Encoding: 72 72 37
Width: 632
GlyphClass: 2
Flags: W
AnchorPoint: "Anchor-1" 405 668 basechar 0
AnchorPoint: "Anchor-0" 263 0 basechar 0
LayerCount: 2
Fore
SplineSet
150 668 m 1,0,-1
 238 668 l 1,1,-1
 177 383 l 1,2,-1
 511 383 l 1,3,-1
 572 668 l 1,4,-1
 660 668 l 1,5,-1
 518 0 l 1,6,-1
 430 0 l 1,7,-1
 495 306 l 1,8,-1
 161 306 l 1,9,-1
 96 0 l 1,10,-1
 8 0 l 1,11,-1
 150 668 l 1,0,-1
EndSplineSet
EndChar
StartChar: J
Encoding: 74 74 48
Width: 632
GlyphClass: 2
Flags: W
AnchorPoint: "Anchor-1" 565 668 basechar 0
AnchorPoint: "Anchor-0" 266 0 basechar 0
LayerCount: 2
Fore
SplineSet
100 38.5 m 128,-1,1
 38 89 38 89 44 190 c 1,2,-1
 129 214 l 1,3,4
 127 196 127 196 127 187 c 0,5,6
 127 128 127 128 162 94 c 128,-1,7
 197 60 197 60 270 60 c 0,8,9
 324 60 324 60 364.5 90 c 128,-1,10
 405 120 405 120 420 193 c 2,11,-1
 521 668 l 1,12,-1
 609 668 l 1,13,-1
 506 183 l 2,14,15
 486 87 486 87 424 37.5 c 128,-1,16
 362 -12 362 -12 267 -12 c 0,17,0
 162 -12 162 -12 100 38.5 c 128,-1,1
EndSplineSet
Substitution2: "Single Substitution lookup 13 subtable" uni004A0301
AlternateSubs2: "'aalt' Access All Alternates in Latin lookup 0 subtable" uni004A0301
EndChar
StartChar: K
Encoding: 75 75 50
Width: 632
GlyphClass: 2
Flags: W
AnchorPoint: "Anchor-1" 400 668 basechar 0
AnchorPoint: "Anchor-0" 264 0 basechar 0
LayerCount: 2
Fore
SplineSet
175 668 m 1,0,-1
 259 668 l 1,1,-1
 186 326 l 1,2,-1
 557 668 l 1,3,-1
 665 668 l 1,4,-1
 356 386 l 1,5,-1
 552 0 l 1,6,-1
 455 0 l 1,7,-1
 292 326 l 1,8,-1
 162 207 l 1,9,-1
 117 0 l 1,10,-1
 33 0 l 1,11,-1
 175 668 l 1,0,-1
EndSplineSet
EndChar
StartChar: M
Encoding: 77 77 56
Width: 632
GlyphClass: 2
Flags: W
AnchorPoint: "Anchor-1" 405 668 basechar 0
AnchorPoint: "Anchor-0" 263 0 basechar 0
LayerCount: 2
Fore
SplineSet
135 668 m 1,0,-1
 261 668 l 1,1,-1
 286 114 l 1,2,-1
 290 114 l 1,3,-1
 548 668 l 1,4,-1
 675 668 l 1,5,-1
 533 0 l 1,6,-1
 457 0 l 1,7,-1
 580 578 l 1,8,-1
 576 578 l 1,9,-1
 303 0 l 1,10,-1
 224 0 l 1,11,-1
 195 578 l 1,12,-1
 191 578 l 1,13,-1
 68 0 l 1,14,-1
 -7 0 l 1,15,-1
 135 668 l 1,0,-1
EndSplineSet
EndChar
StartChar: R
Encoding: 82 82 74
Width: 632
GlyphClass: 2
Flags: W
AnchorPoint: "Anchor-1" 382 668 basechar 0
AnchorPoint: "Anchor-0" 260 0 basechar 0
LayerCount: 2
Fore
SplineSet
188 668 m 1,0,-1
 387 668 l 2,1,2
 486 668 486 668 545 622.5 c 128,-1,3
 604 577 604 577 604 496 c 0,4,5
 604 407 604 407 548.5 347 c 128,-1,6
 493 287 493 287 378 283 c 1,7,-1
 520 0 l 1,8,-1
 424 0 l 1,9,-1
 292 278 l 1,10,-1
 189 278 l 1,11,-1
 130 0 l 1,12,-1
 46 0 l 1,13,-1
 188 668 l 1,0,-1
477 386.5 m 128,-1,15
 518 423 518 423 518 489 c 0,16,17
 518 540 518 540 480 568 c 128,-1,18
 442 596 442 596 377 596 c 2,19,-1
 257 596 l 1,20,-1
 205 350 l 1,21,-1
 365 350 l 2,22,14
 436 350 436 350 477 386.5 c 128,-1,15
EndSplineSet
EndChar
StartChar: S
Encoding: 83 83 77
Width: 632
GlyphClass: 2
Flags: W
AnchorPoint: "Anchor-1" 395 668 basechar 0
AnchorPoint: "Anchor-0" 293 0 basechar 0
LayerCount: 2
Fore
SplineSet
187.5 6.5 m 128,-1,1
 136 25 136 25 99.5 61.5 c 128,-1,2
 63 98 63 98 51 149 c 1,3,-1
 134 177 l 1,4,5
 144 121 144 121 192 91 c 128,-1,6
 240 61 240 61 304 61 c 0,7,8
 374 61 374 61 420.5 97.5 c 128,-1,9
 467 134 467 134 467 191 c 0,10,11
 467 229 467 229 435.5 254 c 128,-1,12
 404 279 404 279 350 298 c 2,13,-1
 273 326 l 2,14,15
 130 375 130 375 130 485 c 0,16,17
 130 542 130 542 164.5 586.5 c 128,-1,18
 199 631 199 631 256 655.5 c 128,-1,19
 313 680 313 680 377 680 c 0,20,21
 454 680 454 680 514.5 647.5 c 128,-1,22
 575 615 575 615 599 552 c 1,23,-1
 516 523 l 1,24,25
 500 563 500 563 458.5 585 c 128,-1,26
 417 607 417 607 368 607 c 0,27,28
 308 607 308 607 264 577 c 128,-1,29
 220 547 220 547 220 498 c 0,30,31
 220 462 220 462 241.5 440 c 128,-1,32
 263 418 263 418 308 401 c 2,33,-1
 389 372 l 2,34,35
 472 342 472 342 514.5 303 c 128,-1,36
 557 264 557 264 557 204 c 0,37,38
 557 140 557 140 521.5 91 c 128,-1,39
 486 42 486 42 426 15 c 128,-1,40
 366 -12 366 -12 294 -12 c 0,41,0
 239 -12 239 -12 187.5 6.5 c 128,-1,1
EndSplineSet
EndChar
StartChar: U
Encoding: 85 85 87
Width: 632
GlyphClass: 2
Flags: W
AnchorPoint: "Anchor-3" 729 668 basechar 0
AnchorPoint: "Anchor-1" 401 668 basechar 0
LayerCount: 2
Fore
SplineSet
128 35 m 128,-1,1
 70 82 70 82 70 180 c 0,2,3
 70 228 70 228 81 276 c 2,4,-1
 164 668 l 1,5,-1
 253 668 l 1,6,-1
 165 258 l 2,7,8
 157 218 157 218 157 189 c 0,9,10
 157 61 157 61 299 61 c 0,11,12
 367 61 367 61 406.5 102 c 128,-1,13
 446 143 446 143 463 225 c 2,14,-1
 557 668 l 1,15,-1
 646 668 l 1,16,-1
 552 226 l 2,17,18
 527 105 527 105 467 46.5 c 128,-1,19
 407 -12 407 -12 302 -12 c 0,20,0
 186 -12 186 -12 128 35 c 128,-1,1
EndSplineSet
EndChar
StartChar: V
Encoding: 86 86 96
Width: 632
GlyphClass: 2
Flags: W
AnchorPoint: "Anchor-1" 406 668 basechar 0
AnchorPoint: "Anchor-0" 264 0 basechar 0
LayerCount: 2
Fore
SplineSet
133 668 m 1,0,-1
 217 668 l 1,1,-1
 278 98 l 1,2,-1
 282 98 l 1,3,-1
 588 668 l 1,4,-1
 677 668 l 1,5,-1
 309 0 l 1,6,-1
 216 0 l 1,7,-1
 133 668 l 1,0,-1
EndSplineSet
EndChar
StartChar: X
Encoding: 88 88 102
Width: 632
GlyphClass: 2
Flags: W
AnchorPoint: "Anchor-1" 405 668 basechar 0
AnchorPoint: "Anchor-0" 263 0 basechar 0
LayerCount: 2
Fore
SplineSet
285 345 m 1,0,-1
 132 668 l 1,1,-1
 225 668 l 1,2,-1
 345 414 l 1,3,-1
 349 414 l 1,4,-1
 575 668 l 1,5,-1
 678 668 l 1,6,-1
 387 344 l 1,7,-1
 549 0 l 1,8,-1
 456 0 l 1,9,-1
 327 274 l 1,10,-1
 323 274 l 1,11,-1
 79 0 l 1,12,-1
 -23 0 l 1,13,-1
 285 345 l 1,0,-1
EndSplineSet
EndChar
StartChar: backslash
Encoding: 92 92 263
Width: 632
GlyphClass: 1
Flags: W
LayerCount: 2
Fore
SplineSet
424 -90 m 1,0,-1
 152 708 l 1,1,-1
 234 708 l 1,2,-1
 506 -90 l 1,3,-1
 424 -90 l 1,0,-1
EndSplineSet
EndChar
StartChar: bracketright
Encoding: 93 93 273
Width: 632
GlyphClass: 1
Flags: W
LayerCount: 2
Fore
SplineSet
83 -98 m 1,0,-1
 282 -98 l 1,1,-1
 440 644 l 1,2,-1
 241 644 l 1,3,-1
 254 708 l 1,4,-1
 531 708 l 1,5,-1
 347 -162 l 1,6,-1
 70 -162 l 1,7,-1
 83 -98 l 1,0,-1
EndSplineSet
EndChar
StartChar: e
Encoding: 101 101 133
Width: 632
GlyphClass: 2
Flags: W
AnchorPoint: "Anchor-2" 437 -1 basechar 0
AnchorPoint: "Anchor-1" 374 495 basechar 0
AnchorPoint: "Anchor-0" 263 1 basechar 0
LayerCount: 2
Fore
SplineSet
136 47 m 128,-1,1
 75 106 75 106 75 203 c 0,2,3
 75 283 75 283 109.5 353 c 128,-1,4
 144 423 144 423 207 465 c 128,-1,5
 270 507 270 507 351 507 c 0,6,7
 418 507 418 507 466 479.5 c 128,-1,8
 514 452 514 452 539.5 404.5 c 128,-1,9
 565 357 565 357 565 297 c 0,10,11
 565 264 565 264 558 233 c 1,12,-1
 159 233 l 1,13,14
 158 226 158 226 158 213 c 0,15,16
 158 139 158 139 198.5 98.5 c 128,-1,17
 239 58 239 58 314 58 c 0,18,19
 388 58 388 58 434 112 c 1,20,-1
 507 82 l 1,21,22
 431 -12 431 -12 306 -12 c 0,23,0
 197 -12 197 -12 136 47 c 128,-1,1
474 366.5 m 128,-1,25
 458 400 458 400 425 419.5 c 128,-1,26
 392 439 392 439 347 439 c 0,27,28
 279 439 279 439 233.5 397.5 c 128,-1,29
 188 356 188 356 169 292 c 1,30,-1
 486 292 l 1,31,24
 490 333 490 333 474 366.5 c 128,-1,25
EndSplineSet
EndChar
StartChar: f
Encoding: 102 102 142
Width: 632
GlyphClass: 2
Flags: W
AnchorPoint: "Anchor-1" 413 796 basechar 0
AnchorPoint: "Anchor-0" 244 0 basechar 0
LayerCount: 2
Fore
SplineSet
292 429 m 1,0,-1
 141 429 l 1,1,-1
 155 496 l 1,2,-1
 306 496 l 1,3,-1
 329 601 l 2,4,5
 339 651 339 651 355.5 675.5 c 128,-1,6
 372 700 372 700 397.5 708.5 c 128,-1,7
 423 717 423 717 466 717 c 2,8,-1
 663 717 l 1,9,-1
 648 646 l 1,10,-1
 468 646 l 2,11,12
 441 646 441 646 430 635.5 c 128,-1,13
 419 625 419 625 411 588 c 2,14,-1
 392 496 l 1,15,-1
 529 496 l 1,16,-1
 516 429 l 1,17,-1
 378 429 l 1,18,-1
 287 0 l 1,19,-1
 201 0 l 1,20,-1
 292 429 l 1,0,-1
EndSplineSet
EndChar
StartChar: h
Encoding: 104 104 147
Width: 632
GlyphClass: 2
Flags: W
AnchorPoint: "Anchor-1" 430 796 basechar 0
AnchorPoint: "Anchor-0" 261 0 basechar 0
LayerCount: 2
Fore
SplineSet
201 708 m 1,0,-1
 287 708 l 1,1,-1
 226 423 l 1,2,3
 253 455 253 455 299.5 481 c 128,-1,4
 346 507 346 507 401 507 c 0,5,6
 478 507 478 507 515 468 c 128,-1,7
 552 429 552 429 552 364 c 0,8,9
 552 336 552 336 546 306 c 2,10,-1
 480 0 l 1,11,-1
 395 0 l 1,12,-1
 457 292 l 2,13,14
 463 321 463 321 463 346 c 0,15,16
 463 437 463 437 365 437 c 0,17,18
 306 437 306 437 257.5 390.5 c 128,-1,19
 209 344 209 344 193 266 c 2,20,-1
 137 0 l 1,21,-1
 51 0 l 1,22,-1
 201 708 l 1,0,-1
EndSplineSet
EndChar
StartChar: o
Encoding: 111 111 173
Width: 632
GlyphClass: 2
Flags: W
AnchorPoint: "Anchor-3" 642 496 basechar 0
AnchorPoint: "Anchor-2" 502 10 basechar 0
AnchorPoint: "Anchor-1" 365 496 basechar 0
AnchorPoint: "Anchor-0" 263 0 basechar 0
LayerCount: 2
Fore
SplineSet
171.5 15 m 128,-1,1
 120 42 120 42 90.5 92 c 128,-1,2
 61 142 61 142 61 208 c 0,3,4
 61 291 61 291 96.5 359.5 c 128,-1,5
 132 428 132 428 196.5 467.5 c 128,-1,6
 261 507 261 507 344 507 c 0,7,8
 409 507 409 507 460.5 480 c 128,-1,9
 512 453 512 453 541.5 403.5 c 128,-1,10
 571 354 571 354 571 287 c 0,11,12
 571 204 571 204 535.5 136 c 128,-1,13
 500 68 500 68 435.5 28 c 128,-1,14
 371 -12 371 -12 288 -12 c 0,15,0
 223 -12 223 -12 171.5 15 c 128,-1,1
395.5 91 m 128,-1,17
 439 124 439 124 461.5 176.5 c 128,-1,18
 484 229 484 229 484 285 c 0,19,20
 484 353 484 353 448.5 395 c 128,-1,21
 413 437 413 437 340 437 c 0,22,23
 281 437 281 437 237.5 404 c 128,-1,24
 194 371 194 371 171 319 c 128,-1,25
 148 267 148 267 148 210 c 0,26,27
 148 142 148 142 183.5 100 c 128,-1,28
 219 58 219 58 292 58 c 0,29,16
 352 58 352 58 395.5 91 c 128,-1,17
EndSplineSet
Substitution2: "Single Substitution lookup 14 subtable" ordmasculine
AlternateSubs2: "'aalt' Access All Alternates in Latin lookup 0 subtable" ordmasculine
EndChar
StartChar: p
Encoding: 112 112 182
Width: 632
GlyphClass: 2
Flags: W
AnchorPoint: "Anchor-1" 338 496 basechar 0
AnchorPoint: "Anchor-0" 232 0 basechar 0
LayerCount: 2
Fore
SplineSet
142 496 m 1,0,-1
 212 496 l 1,1,-1
 211 420 l 1,2,3
 246 462 246 462 292.5 484.5 c 128,-1,4
 339 507 339 507 392 507 c 0,5,6
 480 507 480 507 531 450 c 128,-1,7
 582 393 582 393 582 299 c 0,8,9
 582 218 582 218 550 146.5 c 128,-1,10
 518 75 518 75 457 31.5 c 128,-1,11
 396 -12 396 -12 313 -12 c 0,12,13
 251 -12 251 -12 205.5 14.5 c 128,-1,14
 160 41 160 41 139 89 c 1,15,-1
 87 -162 l 1,16,-1
 2 -162 l 1,17,-1
 142 496 l 1,0,-1
410.5 95 m 128,-1,19
 455 132 455 132 475 186 c 128,-1,20
 495 240 495 240 495 290 c 0,21,22
 495 356 495 356 460 396.5 c 128,-1,23
 425 437 425 437 363 437 c 0,24,25
 298 437 298 437 254 399.5 c 128,-1,26
 210 362 210 362 188.5 306.5 c 128,-1,27
 167 251 167 251 167 198 c 0,28,29
 167 133 167 133 201 95.5 c 128,-1,30
 235 58 235 58 299 58 c 0,31,18
 366 58 366 58 410.5 95 c 128,-1,19
EndSplineSet
EndChar
StartChar: r
Encoding: 114 114 185
Width: 632
GlyphClass: 2
Flags: W
AnchorPoint: "Anchor-1" 372 496 basechar 0
AnchorPoint: "Anchor-0" 138 0 basechar 0
LayerCount: 2
Fore
SplineSet
201 496 m 1,0,-1
 266 496 l 1,1,-1
 261 381 l 1,2,3
 308 442 308 442 374 473.5 c 128,-1,4
 440 505 440 505 512 505 c 0,5,6
 554 505 554 505 590 496 c 1,7,-1
 572 408 l 1,8,9
 524 423 524 423 478 423 c 0,10,11
 384 423 384 423 315.5 367.5 c 128,-1,12
 247 312 247 312 225 207 c 2,13,-1
 181 0 l 1,14,-1
 96 0 l 1,15,-1
 201 496 l 1,0,-1
EndSplineSet
EndChar
StartChar: t
Encoding: 116 116 194
Width: 632
GlyphClass: 2
Flags: W
AnchorPoint: "Anchor-3" 403 545 basechar 0
AnchorPoint: "Anchor-1" 339 496 basechar 0
AnchorPoint: "Anchor-0" 289 0 basechar 0
LayerCount: 2
Fore
SplineSet
221.5 18 m 128,-1,1
 194 36 194 36 194 80 c 0,2,3
 194 105 194 105 201 136 c 2,4,-1
 263 429 l 1,5,-1
 156 429 l 1,6,-1
 171 496 l 1,7,-1
 278 496 l 1,8,-1
 304 620 l 1,9,-1
 389 620 l 1,10,-1
 363 496 l 1,11,-1
 574 496 l 1,12,-1
 559 429 l 1,13,-1
 348 429 l 1,14,-1
 287 141 l 2,15,16
 283 124 283 124 283 108 c 0,17,18
 283 87 283 87 295.5 79 c 128,-1,19
 308 71 308 71 339 71 c 2,20,-1
 433 71 l 1,21,-1
 418 0 l 1,22,-1
 313 0 l 2,23,0
 249 0 249 0 221.5 18 c 128,-1,1
EndSplineSet
EndChar
StartChar: u
Encoding: 117 117 198
Width: 632
GlyphClass: 2
Flags: W
AnchorPoint: "Anchor-3" 614 496 basechar 0
AnchorPoint: "Anchor-2" 473 10 basechar 0
AnchorPoint: "Anchor-1" 359 496 basechar 0
AnchorPoint: "Anchor-0" 254 0 basechar 0
LayerCount: 2
Fore
SplineSet
122.5 26.5 m 128,-1,1
 86 65 86 65 86 130 c 0,2,3
 86 161 86 161 93 190 c 2,4,-1
 158 496 l 1,5,-1
 244 496 l 1,6,-1
 182 204 l 2,7,8
 175 169 175 169 175 148 c 0,9,10
 175 58 175 58 268 58 c 0,11,12
 324 58 324 58 370.5 104.5 c 128,-1,13
 417 151 417 151 434 229 c 2,14,-1
 491 496 l 1,15,-1
 576 496 l 1,16,-1
 471 0 l 1,17,-1
 401 0 l 1,18,-1
 404 76 l 1,19,20
 373 40 373 40 329 14 c 128,-1,21
 285 -12 285 -12 233 -12 c 0,22,0
 159 -12 159 -12 122.5 26.5 c 128,-1,1
EndSplineSet
EndChar
StartChar: w
Encoding: 119 119 208
Width: 632
GlyphClass: 2
Flags: W
AnchorPoint: "Anchor-1" 366 496 basechar 0
AnchorPoint: "Anchor-0" 263 0 basechar 0
LayerCount: 2
Fore
SplineSet
82 496 m 1,0,-1
 155 496 l 1,1,-1
 160 114 l 1,2,-1
 164 114 l 1,3,-1
 331 496 l 1,4,-1
 403 496 l 1,5,-1
 410 115 l 1,6,-1
 414 115 l 1,7,-1
 579 496 l 1,8,-1
 656 496 l 1,9,-1
 430 0 l 1,10,-1
 356 0 l 1,11,-1
 348 392 l 1,12,-1
 344 392 l 1,13,-1
 171 0 l 1,14,-1
 97 0 l 1,15,-1
 82 496 l 1,0,-1
EndSplineSet
EndChar
StartChar: x
Encoding: 120 120 213
Width: 632
GlyphClass: 2
Flags: W
AnchorPoint: "Anchor-1" 370 496 basechar 0
AnchorPoint: "Anchor-0" 264 0 basechar 0
LayerCount: 2
Fore
SplineSet
266 256 m 1,0,-1
 130 496 l 1,1,-1
 222 496 l 1,2,-1
 325 315 l 1,3,-1
 329 315 l 1,4,-1
 509 496 l 1,5,-1
 609 496 l 1,6,-1
 370 254 l 1,7,-1
 512 0 l 1,8,-1
 420 0 l 1,9,-1
 308 194 l 1,10,-1
 304 194 l 1,11,-1
 114 0 l 1,12,-1
 14 0 l 1,13,-1
 266 256 l 1,0,-1
EndSplineSet
EndChar
StartChar: braceleft
Encoding: 123 123 270
Width: 632
GlyphClass: 1
Flags: W
LayerCount: 2
Fore
SplineSet
190 -142 m 128,-1,1
 162 -122 162 -122 162 -82 c 0,2,3
 162 -62 162 -62 168 -36 c 2,4,-1
 207 143 l 2,5,6
 212 166 212 166 212 181 c 0,7,8
 212 210 212 210 194 224 c 128,-1,9
 176 238 176 238 134 241 c 1,10,-1
 148 305 l 1,11,12
 187 306 187 306 208 314.5 c 128,-1,13
 229 323 229 323 241 342.5 c 128,-1,14
 253 362 253 362 261 400 c 2,15,-1
 305 605 l 2,16,17
 314 646 314 646 327.5 668 c 128,-1,18
 341 690 341 690 364 699 c 128,-1,19
 387 708 387 708 428 708 c 2,20,-1
 575 708 l 1,21,-1
 562 641 l 1,22,-1
 433 641 l 2,23,24
 412 641 412 641 402 633.5 c 128,-1,25
 392 626 392 626 387 604 c 2,26,-1
 341 393 l 2,27,28
 328 334 328 334 304.5 307 c 128,-1,29
 281 280 281 280 240 273 c 1,30,-1
 238 267 l 1,31,32
 267 255 267 255 280.5 235.5 c 128,-1,33
 294 216 294 216 294 184 c 0,34,35
 294 166 294 166 287 131 c 2,36,-1
 248 -50 l 1,37,-1
 246 -67 l 2,38,39
 246 -82 246 -82 257.5 -88.5 c 128,-1,40
 269 -95 269 -95 294 -95 c 2,41,-1
 405 -95 l 1,42,-1
 391 -162 l 1,43,-1
 286 -162 l 2,44,0
 218 -162 218 -162 190 -142 c 128,-1,1
EndSplineSet
EndChar
StartChar: braceright
Encoding: 125 125 271
Width: 632
GlyphClass: 1
Flags: W
LayerCount: 2
Fore
SplineSet
81 -95 m 1,0,-1
 210 -95 l 2,1,2
 231 -95 231 -95 241 -87.5 c 128,-1,3
 251 -80 251 -80 256 -58 c 2,4,-1
 302 153 l 2,5,6
 315 212 315 212 338.5 239 c 128,-1,7
 362 266 362 266 403 273 c 1,8,-1
 405 279 l 1,9,10
 376 291 376 291 362.5 310.5 c 128,-1,11
 349 330 349 330 349 362 c 0,12,13
 349 380 349 380 356 415 c 2,14,-1
 395 596 l 1,15,-1
 397 613 l 2,16,17
 397 628 397 628 385.5 634.5 c 128,-1,18
 374 641 374 641 349 641 c 2,19,-1
 238 641 l 1,20,-1
 252 708 l 1,21,-1
 357 708 l 2,22,23
 425 708 425 708 453 688 c 128,-1,24
 481 668 481 668 481 628 c 0,25,26
 481 608 481 608 475 582 c 2,27,-1
 436 403 l 2,28,29
 431 380 431 380 431 365 c 0,30,31
 431 336 431 336 449 322 c 128,-1,32
 467 308 467 308 509 305 c 1,33,-1
 495 241 l 1,34,35
 456 240 456 240 435 231.5 c 128,-1,36
 414 223 414 223 402 203.5 c 128,-1,37
 390 184 390 184 382 146 c 2,38,-1
 338 -59 l 2,39,40
 329 -100 329 -100 315.5 -122 c 128,-1,41
 302 -144 302 -144 279 -153 c 128,-1,42
 256 -162 256 -162 215 -162 c 2,43,-1
 68 -162 l 1,44,-1
 81 -95 l 1,0,-1
EndSplineSet
EndChar
StartChar: asciitilde
Encoding: 126 126 324
Width: 632
GlyphClass: 1
Flags: W
LayerCount: 2
Fore
SplineSet
123 293.5 m 128,-1,1
 159 328 159 328 215 328 c 0,2,3
 244 328 244 328 269.5 319 c 128,-1,4
 295 310 295 310 329 293 c 0,5,6
 360 278 360 278 379.5 271 c 128,-1,7
 399 264 399 264 420 264 c 0,8,9
 453 264 453 264 473 282.5 c 128,-1,10
 493 301 493 301 504 340 c 1,11,-1
 568 321 l 1,12,13
 550 260 550 260 514 225.5 c 128,-1,14
 478 191 478 191 422 191 c 0,15,16
 393 191 393 191 368 200 c 128,-1,17
 343 209 343 209 308 226 c 0,18,19
 277 241 277 241 257.5 248 c 128,-1,20
 238 255 238 255 217 255 c 0,21,22
 184 255 184 255 164 236.5 c 128,-1,23
 144 218 144 218 133 179 c 1,24,-1
 69 198 l 1,25,0
 87 259 87 259 123 293.5 c 128,-1,1
EndSplineSet
EndChar
StartChar: sterling
Encoding: 163 163 307
Width: 632
GlyphClass: 1
Flags: W
LayerCount: 2
Fore
SplineSet
176 148.5 m 128,-1,1
 222 206 222 206 222 278 c 0,2,3
 222 298 222 298 219 319 c 1,4,-1
 104 319 l 1,5,-1
 114 369 l 1,6,-1
 209 369 l 1,7,8
 198 412 198 412 193 440 c 128,-1,9
 188 468 188 468 188 493 c 0,10,11
 188 546 188 546 213.5 588.5 c 128,-1,12
 239 631 239 631 288.5 655.5 c 128,-1,13
 338 680 338 680 406 680 c 0,14,15
 487 680 487 680 545.5 643 c 128,-1,16
 604 606 604 606 618 540 c 1,17,-1
 535 517 l 1,18,19
 528 562 528 562 494 585.5 c 128,-1,20
 460 609 460 609 406 609 c 0,21,22
 345 609 345 609 309.5 577.5 c 128,-1,23
 274 546 274 546 274 489 c 0,24,25
 274 465 274 465 279.5 439.5 c 128,-1,26
 285 414 285 414 297 369 c 1,27,-1
 489 369 l 1,28,-1
 479 319 l 1,29,-1
 307 319 l 1,30,31
 310 303 310 303 310 286 c 0,32,33
 310 223 310 223 278 170.5 c 128,-1,34
 246 118 246 118 185 83 c 1,35,36
 208 93 208 93 238 93 c 0,37,38
 257 93 257 93 274.5 89 c 128,-1,39
 292 85 292 85 318 77 c 0,40,41
 349 68 349 68 368 64 c 128,-1,42
 387 60 387 60 410 60 c 0,43,44
 432 60 432 60 454 65.5 c 128,-1,45
 476 71 476 71 513 85 c 1,46,-1
 523 18 l 1,47,48
 450 -12 450 -12 392 -12 c 0,49,50
 367 -12 367 -12 347.5 -7.5 c 128,-1,51
 328 -3 328 -3 296 7 c 0,52,53
 270 16 270 16 248.5 21 c 128,-1,54
 227 26 227 26 202 26 c 0,55,56
 170 26 170 26 138 17.5 c 128,-1,57
 106 9 106 9 65 -11 c 1,58,-1
 48 53 l 1,59,0
 130 91 130 91 176 148.5 c 128,-1,1
EndSplineSet
EndChar
StartChar: currency
Encoding: 164 164 303
Width: 632
GlyphClass: 1
Flags: W
LayerCount: 2
Fore
SplineSet
95 119 m 1,0,-1
 160 185 l 1,1,2
 113 245 113 245 113 321 c 256,3,4
 113 397 113 397 160 457 c 1,5,-1
 95 522 l 1,6,-1
 130 557 l 1,7,-1
 196 492 l 1,8,9
 256 538 256 538 331 538 c 0,10,11
 407 538 407 538 467 492 c 1,12,-1
 532 557 l 1,13,-1
 568 522 l 1,14,-1
 502 457 l 1,15,16
 550 398 550 398 550 321 c 256,17,18
 550 244 550 244 502 185 c 1,19,-1
 568 119 l 1,20,-1
 532 85 l 1,21,-1
 467 150 l 1,22,23
 407 103 407 103 331 103 c 0,24,25
 256 103 256 103 196 150 c 1,26,-1
 130 85 l 1,27,-1
 95 119 l 1,0,-1
403 195.5 m 128,-1,29
 436 215 436 215 455.5 248.5 c 128,-1,30
 475 282 475 282 475 321 c 256,31,32
 475 360 475 360 455.5 393.5 c 128,-1,33
 436 427 436 427 403 446.5 c 128,-1,34
 370 466 370 466 331 466 c 256,35,36
 292 466 292 466 259 446.5 c 128,-1,37
 226 427 226 427 206.5 393.5 c 128,-1,38
 187 360 187 360 187 321 c 256,39,40
 187 282 187 282 206.5 248.5 c 128,-1,41
 226 215 226 215 259 195.5 c 128,-1,42
 292 176 292 176 331 176 c 256,43,28
 370 176 370 176 403 195.5 c 128,-1,29
EndSplineSet
EndChar
StartChar: brokenbar
Encoding: 166 166 297
Width: 632
GlyphClass: 1
Flags: W
LayerCount: 2
Fore
SplineSet
274 233 m 1,0,-1
 352 233 l 1,1,-1
 268 -162 l 1,2,-1
 190 -162 l 1,3,-1
 274 233 l 1,0,-1
402 838 m 1,4,-1
 480 838 l 1,5,-1
 396 443 l 1,6,-1
 318 443 l 1,7,-1
 402 838 l 1,4,-1
EndSplineSet
EndChar
StartChar: section
Encoding: 167 167 291
Width: 632
GlyphClass: 1
Flags: W
LayerCount: 2
Fore
SplineSet
127 -139.5 m 128,-1,1
 76 -106 76 -106 65 -43 c 1,2,-1
 146 -20 l 1,3,4
 152 -65 152 -65 181 -85 c 128,-1,5
 210 -105 210 -105 254 -105 c 0,6,7
 296 -105 296 -105 328.5 -84 c 128,-1,8
 361 -63 361 -63 361 -31 c 0,9,10
 361 -9 361 -9 343.5 11.5 c 128,-1,11
 326 32 326 32 280 65 c 2,12,-1
 193 128 l 2,13,14
 139 166 139 166 114.5 199.5 c 128,-1,15
 90 233 90 233 90 272 c 0,16,17
 90 378 90 378 241 434 c 1,18,19
 193 481 193 481 193 527 c 256,20,21
 193 573 193 573 220 608 c 128,-1,22
 247 643 247 643 291.5 661.5 c 128,-1,23
 336 680 336 680 387 680 c 0,24,25
 456 680 456 680 507 646.5 c 128,-1,26
 558 613 558 613 569 550 c 1,27,-1
 488 528 l 1,28,29
 482 572 482 572 453 592 c 128,-1,30
 424 612 424 612 380 612 c 0,31,32
 338 612 338 612 305.5 590.5 c 128,-1,33
 273 569 273 569 273 537 c 0,34,35
 273 516 273 516 290.5 495.5 c 128,-1,36
 308 475 308 475 354 442 c 2,37,-1
 441 379 l 2,38,39
 495 341 495 341 519.5 307.5 c 128,-1,40
 544 274 544 274 544 235 c 0,41,42
 544 129 544 129 393 73 c 1,43,44
 441 26 441 26 441 -20 c 256,45,46
 441 -66 441 -66 414 -101 c 128,-1,47
 387 -136 387 -136 342.5 -154.5 c 128,-1,48
 298 -173 298 -173 247 -173 c 0,49,0
 178 -173 178 -173 127 -139.5 c 128,-1,1
461 220 m 0,51,52
 461 246 461 246 443 268.5 c 128,-1,53
 425 291 425 291 386 318 c 2,54,-1
 291 387 l 1,55,56
 173 351 173 351 173 287 c 0,57,58
 173 261 173 261 191 238.5 c 128,-1,59
 209 216 209 216 248 189 c 2,60,-1
 343 120 l 1,61,50
 461 156 461 156 461 220 c 0,51,52
EndSplineSet
EndChar
StartChar: copyright
Encoding: 169 169 292
Width: 632
GlyphClass: 1
Flags: W
LayerCount: 2
Fore
SplineSet
180.5 33.5 m 128,-1,1
 113 80 113 80 75.5 159 c 128,-1,2
 38 238 38 238 38 334 c 0,3,4
 38 429 38 429 75.5 508.5 c 128,-1,5
 113 588 113 588 180.5 634 c 128,-1,6
 248 680 248 680 334 680 c 256,7,8
 420 680 420 680 487.5 634 c 128,-1,9
 555 588 555 588 592.5 508.5 c 128,-1,10
 630 429 630 429 630 334 c 0,11,12
 630 238 630 238 592.5 159 c 128,-1,13
 555 80 555 80 487.5 33.5 c 128,-1,14
 420 -13 420 -13 334 -13 c 256,15,0
 248 -13 248 -13 180.5 33.5 c 128,-1,1
224.5 194.5 m 128,-1,17
 183 246 183 246 183 335 c 256,18,19
 183 424 183 424 226 475 c 128,-1,20
 269 526 269 526 338 526 c 0,21,22
 383 526 383 526 414.5 503 c 128,-1,23
 446 480 446 480 463 441 c 1,24,-1
 404 417 l 1,25,26
 383 468 383 468 338 468 c 0,27,28
 301 468 301 468 276.5 434 c 128,-1,29
 252 400 252 400 252 335 c 0,30,31
 252 271 252 271 277 236 c 128,-1,32
 302 201 302 201 337 201 c 0,33,34
 363 201 363 201 379.5 212 c 128,-1,35
 396 223 396 223 407 249 c 1,36,-1
 465 225 l 1,37,38
 446 189 446 189 414.5 166 c 128,-1,39
 383 143 383 143 337 143 c 0,40,16
 266 143 266 143 224.5 194.5 c 128,-1,17
460 77 m 128,-1,42
 515 116 515 116 545.5 183.5 c 128,-1,43
 576 251 576 251 576 334 c 0,44,45
 576 416 576 416 545.5 483.5 c 128,-1,46
 515 551 515 551 459.5 590 c 128,-1,47
 404 629 404 629 334 629 c 256,48,49
 264 629 264 629 208.5 590 c 128,-1,50
 153 551 153 551 122.5 483.5 c 128,-1,51
 92 416 92 416 92 334 c 0,52,53
 92 251 92 251 122.5 183.5 c 128,-1,54
 153 116 153 116 208 77 c 128,-1,55
 263 38 263 38 334 38 c 256,56,41
 405 38 405 38 460 77 c 128,-1,42
EndSplineSet
EndChar
StartChar: ordfeminine
Encoding: 170 170 223
Width: 632
GlyphClass: 1
Flags: W
LayerCount: 2
Fore
SplineSet
231.5 357 m 128,-1,1
 200 379 200 379 200 424 c 0,2,3
 200 489 200 489 264 517.5 c 128,-1,4
 328 546 328 546 455 554 c 1,5,6
 458 569 458 569 458 581 c 0,7,8
 458 641 458 641 388 641 c 0,9,10
 325 641 325 641 305 592 c 1,11,-1
 248 609 l 1,12,13
 264 647 264 647 302 670 c 128,-1,14
 340 693 340 693 391 693 c 0,15,16
 456 693 456 693 489 664.5 c 128,-1,17
 522 636 522 636 522 583 c 0,18,19
 522 565 522 565 517 540 c 2,20,-1
 498 449 l 2,21,22
 487 400 487 400 487 371 c 0,23,24
 487 352 487 352 489 343 c 1,25,-1
 428 343 l 1,26,-1
 425 381 l 1,27,28
 380 335 380 335 315 335 c 0,29,0
 263 335 263 335 231.5 357 c 128,-1,1
401.5 410 m 128,-1,31
 431 435 431 435 440 475 c 2,32,-1
 446 505 l 1,33,34
 356 501 356 501 312 482.5 c 128,-1,35
 268 464 268 464 268 427 c 0,36,37
 268 405 268 405 285 395 c 128,-1,38
 302 385 302 385 328 385 c 0,39,30
 372 385 372 385 401.5 410 c 128,-1,31
EndSplineSet
EndChar
StartChar: guillemotleft
Encoding: 171 171 280
Width: 632
GlyphClass: 1
Flags: W
LayerCount: 2
Fore
SplineSet
298 244 m 1,0,-1
 487 460 l 1,1,-1
 587 460 l 1,2,-1
 391 238 l 1,3,-1
 497 40 l 1,4,-1
 407 40 l 1,5,-1
 298 244 l 1,0,-1
91 250 m 1,6,-1
 281 460 l 1,7,-1
 380 460 l 1,8,-1
 184 244 l 1,9,-1
 290 40 l 1,10,-1
 200 40 l 1,11,-1
 91 250 l 1,6,-1
EndSplineSet
EndChar
StartChar: degree
Encoding: 176 176 295
Width: 632
GlyphClass: 1
Flags: W
LayerCount: 2
Fore
SplineSet
312 429 m 128,-1,1
 281 447 281 447 263 478 c 128,-1,2
 245 509 245 509 245 545 c 0,3,4
 245 582 245 582 263 613 c 128,-1,5
 281 644 281 644 312 662 c 128,-1,6
 343 680 343 680 379 680 c 0,7,8
 416 680 416 680 447 662 c 128,-1,9
 478 644 478 644 496 613 c 128,-1,10
 514 582 514 582 514 545 c 0,11,12
 514 509 514 509 496 478 c 128,-1,13
 478 447 478 447 447 429 c 128,-1,14
 416 411 416 411 379 411 c 0,15,0
 343 411 343 411 312 429 c 128,-1,1
433.5 490.5 m 128,-1,17
 456 513 456 513 456 545 c 0,18,19
 456 578 456 578 433.5 600 c 128,-1,20
 411 622 411 622 379 622 c 256,21,22
 347 622 347 622 324.5 600 c 128,-1,23
 302 578 302 578 302 545 c 0,24,25
 302 514 302 514 325 491 c 128,-1,26
 348 468 348 468 379 468 c 0,27,16
 411 468 411 468 433.5 490.5 c 128,-1,17
EndSplineSet
EndChar
StartChar: plusminus
Encoding: 177 177 321
Width: 632
GlyphClass: 1
Flags: W
LayerCount: 2
Fore
SplineSet
285 276 m 1,0,-1
 78 276 l 1,1,-1
 93 344 l 1,2,-1
 299 344 l 1,3,-1
 332 496 l 1,4,-1
 406 496 l 1,5,-1
 374 344 l 1,6,-1
 580 344 l 1,7,-1
 566 276 l 1,8,-1
 359 276 l 1,9,-1
 328 126 l 1,10,-1
 253 126 l 1,11,-1
 285 276 l 1,0,-1
36 77 m 1,12,-1
 524 77 l 1,13,-1
 507 0 l 1,14,-1
 19 0 l 1,15,-1
 36 77 l 1,12,-1
EndSplineSet
EndChar
StartChar: uni00B2
Encoding: 178 178 245
Width: 632
GlyphClass: 1
Flags: W
LayerCount: 2
Fore
SplineSet
234 438 m 2,0,1
 319 497 319 497 366.5 533 c 128,-1,2
 414 569 414 569 445.5 607.5 c 128,-1,3
 477 646 477 646 477 682 c 0,4,5
 477 707 477 707 459.5 721 c 128,-1,6
 442 735 442 735 412 735 c 0,7,8
 384 735 384 735 363 719 c 128,-1,9
 342 703 342 703 333 668 c 1,10,-1
 271 685 l 1,11,12
 286 732 286 732 324 759 c 128,-1,13
 362 786 362 786 417 786 c 0,14,15
 473 786 473 786 509 758.5 c 128,-1,16
 545 731 545 731 545 686 c 0,17,18
 545 634 545 634 502.5 583.5 c 128,-1,19
 460 533 460 533 412 499 c 128,-1,20
 364 465 364 465 293 421 c 1,21,-1
 502 421 l 1,22,-1
 490 364 l 1,23,-1
 193 364 l 1,24,-1
 204 418 l 1,25,-1
 234 438 l 2,0,1
EndSplineSet
EndChar
StartChar: uni00B3
Encoding: 179 179 246
Width: 632
GlyphClass: 1
Flags: W
LayerCount: 2
Fore
SplineSet
259 385 m 128,-1,1
 222 413 222 413 216 457 c 1,2,-1
 278 473 l 1,3,4
 289 409 289 409 358 409 c 0,5,6
 401 409 401 409 424.5 434.5 c 128,-1,7
 448 460 448 460 448 493 c 0,8,9
 448 525 448 525 417 540 c 128,-1,10
 386 555 386 555 337 554 c 1,11,-1
 348 607 l 1,12,13
 370 605 370 605 380 605 c 0,14,15
 425 605 425 605 451.5 622.5 c 128,-1,16
 478 640 478 640 478 678 c 0,17,18
 478 704 478 704 458.5 719 c 128,-1,19
 439 734 439 734 405 734 c 0,20,21
 346 734 346 734 320 675 c 1,22,-1
 261 692 l 1,23,24
 278 735 278 735 318.5 760.5 c 128,-1,25
 359 786 359 786 411 786 c 0,26,27
 467 786 467 786 506 757.5 c 128,-1,28
 545 729 545 729 545 682 c 0,29,30
 545 647 545 647 523 617 c 128,-1,31
 501 587 501 587 462 575 c 1,32,33
 487 563 487 563 501 541 c 128,-1,34
 515 519 515 519 515 492 c 0,35,36
 515 433 515 433 470.5 395 c 128,-1,37
 426 357 426 357 360 357 c 0,38,0
 296 357 296 357 259 385 c 128,-1,1
EndSplineSet
EndChar
StartChar: uni00B9
Encoding: 185 185 244
Width: 632
GlyphClass: 1
Flags: W
LayerCount: 2
Fore
SplineSet
433 683 m 1,0,-1
 342 683 l 1,1,-1
 351 724 l 1,2,3
 394 723 394 723 420.5 736 c 128,-1,4
 447 749 447 749 464 779 c 1,5,-1
 518 779 l 1,6,-1
 430 364 l 1,7,-1
 365 364 l 1,8,-1
 433 683 l 1,0,-1
EndSplineSet
EndChar
StartChar: ordmasculine
Encoding: 186 186 224
Width: 632
GlyphClass: 1
Flags: W
LayerCount: 2
Fore
SplineSet
245.5 374.5 m 128,-1,1
 204 414 204 414 204 481 c 0,2,3
 204 535 204 535 227 584 c 128,-1,4
 250 633 250 633 292.5 663 c 128,-1,5
 335 693 335 693 393 693 c 0,6,7
 459 693 459 693 500 653 c 128,-1,8
 541 613 541 613 541 546 c 0,9,10
 541 492 541 492 518 443.5 c 128,-1,11
 495 395 495 395 452.5 365 c 128,-1,12
 410 335 410 335 352 335 c 0,13,0
 287 335 287 335 245.5 374.5 c 128,-1,1
421.5 415.5 m 128,-1,15
 448 441 448 441 460 477 c 128,-1,16
 472 513 472 513 472 543 c 0,17,18
 472 587 472 587 450.5 613 c 128,-1,19
 429 639 429 639 391 639 c 0,20,21
 350 639 350 639 323.5 613 c 128,-1,22
 297 587 297 587 285 550.5 c 128,-1,23
 273 514 273 514 273 484 c 0,24,25
 273 441 273 441 294.5 415.5 c 128,-1,26
 316 390 316 390 354 390 c 0,27,14
 395 390 395 390 421.5 415.5 c 128,-1,15
EndSplineSet
EndChar
StartChar: guillemotright
Encoding: 187 187 281
Width: 632
GlyphClass: 1
Flags: W
LayerCount: 2
Fore
SplineSet
449 256 m 1,0,-1
 343 460 l 1,1,-1
 432 460 l 1,2,-1
 542 250 l 1,3,-1
 352 40 l 1,4,-1
 253 40 l 1,5,-1
 449 256 l 1,0,-1
242 262 m 1,6,-1
 136 460 l 1,7,-1
 225 460 l 1,8,-1
 335 256 l 1,9,-1
 145 40 l 1,10,-1
 46 40 l 1,11,-1
 242 262 l 1,6,-1
EndSplineSet
EndChar
StartChar: onequarter
Encoding: 188 188 242
Width: 632
GlyphClass: 3
Flags: W
LayerCount: 2
Fore
SplineSet
204 580 m 1,0,-1
 136 580 l 1,1,-1
 147 629 l 1,2,3
 181 628 181 628 202.5 637 c 128,-1,4
 224 646 224 646 235 668 c 1,5,-1
 287 668 l 1,6,-1
 223 363 l 1,7,-1
 159 363 l 1,8,-1
 204 580 l 1,0,-1
545 668 m 1,9,-1
 623 668 l 1,10,-1
 123 0 l 1,11,-1
 45 0 l 1,12,-1
 545 668 l 1,9,-1
447 63 m 1,13,-1
 291 63 l 1,14,-1
 303 117 l 1,15,-1
 494 306 l 1,16,-1
 559 306 l 1,17,-1
 520 118 l 1,18,-1
 568 118 l 1,19,-1
 556 63 l 1,20,-1
 508 63 l 1,21,-1
 495 0 l 1,22,-1
 434 0 l 1,23,-1
 447 63 l 1,13,-1
459 118 m 1,24,-1
 482 224 l 1,25,-1
 480 224 l 1,26,-1
 373 118 l 1,27,-1
 459 118 l 1,24,-1
EndSplineSet
Ligature2: "'frac' Diagonal Fractions in Latin lookup 7 subtable" one slash four
EndChar
StartChar: onehalf
Encoding: 189 189 241
Width: 632
GlyphClass: 3
Flags: W
LayerCount: 2
Fore
SplineSet
174 580 m 1,0,-1
 106 580 l 1,1,-1
 117 629 l 1,2,3
 151 628 151 628 172.5 637 c 128,-1,4
 194 646 194 646 205 668 c 1,5,-1
 257 668 l 1,6,-1
 193 363 l 1,7,-1
 129 363 l 1,8,-1
 174 580 l 1,0,-1
514 668 m 1,9,-1
 592 668 l 1,10,-1
 92 0 l 1,11,-1
 14 0 l 1,12,-1
 514 668 l 1,9,-1
413 108 m 128,-1,14
 448 130 448 130 481 162 c 128,-1,15
 514 194 514 194 514 224 c 0,16,17
 514 259 514 259 473 259 c 256,18,19
 432 259 432 259 419 218 c 1,20,-1
 362 236 l 1,21,22
 398 310 398 310 479 310 c 0,23,24
 524 310 524 310 552 288.5 c 128,-1,25
 580 267 580 267 580 232 c 0,26,27
 580 181 580 181 534.5 139.5 c 128,-1,28
 489 98 489 98 421 57 c 1,29,-1
 550 57 l 1,30,-1
 538 0 l 1,31,-1
 306 0 l 1,32,-1
 317 51 l 1,33,13
 378 86 378 86 413 108 c 128,-1,14
EndSplineSet
Ligature2: "'frac' Diagonal Fractions in Latin lookup 7 subtable" one slash two
EndChar
StartChar: threequarters
Encoding: 190 190 243
Width: 632
GlyphClass: 3
Flags: W
LayerCount: 2
Fore
SplineSet
556 668 m 1,0,-1
 634 668 l 1,1,-1
 134 0 l 1,2,-1
 56 0 l 1,3,-1
 556 668 l 1,0,-1
459 63 m 1,4,-1
 303 63 l 1,5,-1
 315 117 l 1,6,-1
 506 306 l 1,7,-1
 571 306 l 1,8,-1
 532 118 l 1,9,-1
 580 118 l 1,10,-1
 568 63 l 1,11,-1
 520 63 l 1,12,-1
 507 0 l 1,13,-1
 446 0 l 1,14,-1
 459 63 l 1,4,-1
471 118 m 1,15,-1
 494 224 l 1,16,-1
 492 224 l 1,17,-1
 385 118 l 1,18,-1
 471 118 l 1,15,-1
109 382.5 m 128,-1,20
 77 400 77 400 67 436 c 1,21,-1
 128 454 l 1,22,23
 136 415 136 415 181 415 c 0,24,25
 205 415 205 415 220.5 427.5 c 128,-1,26
 236 440 236 440 236 462 c 0,27,28
 236 483 236 483 216.5 492.5 c 128,-1,29
 197 502 197 502 162 500 c 1,30,-1
 174 554 l 1,31,32
 181 553 181 553 194 553 c 0,33,34
 259 553 259 553 259 596 c 0,35,36
 259 612 259 612 246.5 621 c 128,-1,37
 234 630 234 630 216 630 c 0,38,39
 175 630 175 630 157 594 c 1,40,-1
 99 615 l 1,41,42
 116 647 116 647 146 663.5 c 128,-1,43
 176 680 176 680 217 680 c 0,44,45
 261 680 261 680 292 659.5 c 128,-1,46
 323 639 323 639 323 602 c 0,47,48
 323 577 323 577 307.5 555.5 c 128,-1,49
 292 534 292 534 266 524 c 1,50,51
 282 516 282 516 291.5 499.5 c 128,-1,52
 301 483 301 483 301 466 c 0,53,54
 301 423 301 423 267 394 c 128,-1,55
 233 365 233 365 182 365 c 0,56,19
 141 365 141 365 109 382.5 c 128,-1,20
EndSplineSet
Ligature2: "'frac' Diagonal Fractions in Latin lookup 7 subtable" three slash four
EndChar
StartChar: questiondown
Encoding: 191 191 257
Width: 632
GlyphClass: 1
Flags: W
LayerCount: 2
Fore
SplineSet
145 -164 m 128,-1,1
 99 -146 99 -146 70.5 -110.5 c 128,-1,2
 42 -75 42 -75 42 -27 c 0,3,4
 42 42 42 42 85.5 89 c 128,-1,5
 129 136 129 136 211 179 c 0,6,7
 262 207 262 207 280 226.5 c 128,-1,8
 298 246 298 246 305 279 c 2,9,-1
 313 314 l 1,10,-1
 398 314 l 1,11,-1
 391 280 l 2,12,13
 377 220 377 220 348.5 186.5 c 128,-1,14
 320 153 320 153 251 116 c 0,15,16
 194 86 194 86 161.5 54 c 128,-1,17
 129 22 129 22 129 -20 c 0,18,19
 129 -59 129 -59 163.5 -85 c 128,-1,20
 198 -111 198 -111 251 -111 c 0,21,22
 305 -111 305 -111 342 -79 c 128,-1,23
 379 -47 379 -47 393 -4 c 1,24,-1
 473 -27 l 1,25,26
 450 -101 450 -101 388 -141.5 c 128,-1,27
 326 -182 326 -182 241 -182 c 0,28,0
 191 -182 191 -182 145 -164 c 128,-1,1
338.5 402.5 m 128,-1,30
 320 421 320 421 320 447 c 256,31,32
 320 473 320 473 338.5 491.5 c 128,-1,33
 357 510 357 510 383 510 c 256,34,35
 409 510 409 510 427.5 491.5 c 128,-1,36
 446 473 446 473 446 447 c 256,37,38
 446 421 446 421 427.5 402.5 c 128,-1,39
 409 384 409 384 383 384 c 256,40,29
 357 384 357 384 338.5 402.5 c 128,-1,30
EndSplineSet
EndChar
StartChar: Aring
Encoding: 197 197 10
Width: 632
GlyphClass: 2
Flags: W
AnchorPoint: "Anchor-2" 547 10 basechar 0
AnchorPoint: "Anchor-1" 433 843 basechar 0
AnchorPoint: "Anchor-0" 263 0 basechar 0
LayerCount: 2
Fore
SplineSet
316 687.5 m 128,-1,1
 303 710 303 710 303 737 c 0,2,3
 303 781 303 781 334.5 812 c 128,-1,4
 366 843 366 843 410 843 c 256,5,6
 454 843 454 843 485.5 812 c 128,-1,7
 517 781 517 781 517 737 c 0,8,9
 517 706 517 706 500 680 c 128,-1,10
 483 654 483 654 455 642 c 1,11,-1
 545 0 l 1,12,-1
 464 0 l 1,13,-1
 443 153 l 1,14,-1
 152 153 l 1,15,-1
 67 0 l 1,16,-1
 -19 0 l 1,17,-1
 350 652 l 1,18,0
 329 665 329 665 316 687.5 c 128,-1,1
436 226 m 1,19,-1
 390 577 l 1,20,-1
 386 577 l 1,21,-1
 190 226 l 1,22,-1
 436 226 l 1,19,-1
447.5 699.5 m 128,-1,24
 463 715 463 715 463 737 c 0,25,26
 463 758 463 758 447.5 773.5 c 128,-1,27
 432 789 432 789 410 789 c 0,28,29
 389 789 389 789 373.5 773.5 c 128,-1,30
 358 758 358 758 358 737 c 0,31,32
 358 715 358 715 373.5 699.5 c 128,-1,33
 389 684 389 684 410 684 c 0,34,23
 432 684 432 684 447.5 699.5 c 128,-1,24
EndSplineSet
EndChar
StartChar: AE
Encoding: 198 198 12
Width: 632
GlyphClass: 2
Flags: W
AnchorPoint: "Anchor-1" 413 668 basechar 0
AnchorPoint: "Anchor-0" 271 0 basechar 0
LayerCount: 2
Fore
SplineSet
344 668 m 1,0,-1
 708 668 l 1,1,-1
 693 597 l 1,2,-1
 458 597 l 1,3,-1
 412 379 l 1,4,-1
 586 379 l 1,5,-1
 571 308 l 1,6,-1
 397 308 l 1,7,-1
 346 71 l 1,8,-1
 584 71 l 1,9,-1
 569 0 l 1,10,-1
 255 0 l 1,11,-1
 288 156 l 1,12,-1
 124 156 l 1,13,-1
 34 0 l 1,14,-1
 -48 0 l 1,15,-1
 344 668 l 1,0,-1
302 223 m 1,16,-1
 381 597 l 1,17,-1
 377 597 l 1,18,-1
 161 223 l 1,19,-1
 302 223 l 1,16,-1
EndSplineSet
EndChar
StartChar: Ccedilla
Encoding: 199 199 17
Width: 632
GlyphClass: 2
Flags: W
AnchorPoint: "Anchor-1" 427 668 basechar 0
LayerCount: 2
Fore
SplineSet
190 -153 m 1,1,-1
 210 -122 l 1,2,3
 243 -142 243 -142 274 -142 c 0,4,5
 294 -142 294 -142 307.5 -132 c 128,-1,6
 321 -122 321 -122 321 -107 c 0,7,8
 321 -93 321 -93 310 -86 c 128,-1,9
 299 -79 299 -79 282 -79 c 2,10,-1
 253 -81 l 2,11,12
 238 -81 238 -81 238 -69 c 0,13,14
 238 -59 238 -59 245 -52 c 2,15,-1
 279 -10 l 1,16,17
 174 1 174 1 120 74.5 c 128,-1,18
 66 148 66 148 66 261 c 0,19,20
 66 357 66 357 105 454 c 128,-1,21
 144 551 144 551 220.5 615.5 c 128,-1,22
 297 680 297 680 403 680 c 0,23,24
 483 680 483 680 542 639.5 c 128,-1,25
 601 599 601 599 623 524 c 1,26,-1
 550 499 l 1,27,28
 534 550 534 550 494.5 578.5 c 128,-1,29
 455 607 455 607 401 607 c 0,30,31
 322 607 322 607 266 552 c 128,-1,32
 210 497 210 497 182 417.5 c 128,-1,33
 154 338 154 338 154 266 c 0,34,35
 154 176 154 176 196 118.5 c 128,-1,36
 238 61 238 61 323 61 c 0,37,38
 426 61 426 61 494 165 c 1,39,-1
 566 135 l 1,40,41
 476 -7 476 -7 321 -12 c 1,42,-1
 292 -47 l 1,43,44
 298 -45 298 -45 311 -45 c 0,45,46
 340 -45 340 -45 360 -60.5 c 128,-1,47
 380 -76 380 -76 380 -100 c 0,48,49
 380 -137 380 -137 351.5 -158.5 c 128,-1,50
 323 -180 323 -180 280 -180 c 0,51,0
 233 -180 233 -180 190 -153 c 1,1,-1
EndSplineSet
EndChar
StartChar: multiply
Encoding: 215 215 313
Width: 632
GlyphClass: 1
Flags: W
LayerCount: 2
Fore
SplineSet
72 94 m 1,0,-1
 265 253 l 1,1,-1
 139 412 l 1,2,-1
 196 459 l 1,3,-1
 322 299 l 1,4,-1
 515 459 l 1,5,-1
 561 402 l 1,6,-1
 367 243 l 1,7,-1
 493 84 l 1,8,-1
 435 38 l 1,9,-1
 310 197 l 1,10,-1
 118 38 l 1,11,-1
 72 94 l 1,0,-1
EndSplineSet
EndChar
StartChar: germandbls
Encoding: 223 223 193
Width: 632
GlyphClass: 1
Flags: W
LayerCount: 2
Fore
SplineSet
247 -5 m 1,1,-1
 241 70 l 1,2,3
 261 64 261 64 284 61 c 128,-1,4
 307 58 307 58 322 58 c 0,5,6
 404 58 404 58 450.5 105 c 128,-1,7
 497 152 497 152 497 223 c 0,8,9
 497 267 497 267 472.5 300 c 128,-1,10
 448 333 448 333 407 351 c 128,-1,11
 366 369 366 369 319 369 c 2,12,-1
 315 369 l 1,13,-1
 330 440 l 1,14,15
 336 439 336 439 350 439 c 0,16,17
 405 439 405 439 445.5 463 c 128,-1,18
 486 487 486 487 486 534 c 0,19,20
 486 572 486 572 449.5 591.5 c 128,-1,21
 413 611 413 611 366 611 c 0,22,23
 247 611 247 611 218 479 c 2,24,-1
 117 0 l 1,25,-1
 31 0 l 1,26,-1
 136 490 l 2,27,28
 156 583 156 583 213.5 631.5 c 128,-1,29
 271 680 271 680 363 680 c 0,30,31
 448 680 448 680 505 642 c 128,-1,32
 562 604 562 604 562 540 c 0,33,34
 562 493 562 493 532.5 456 c 128,-1,35
 503 419 503 419 452 400 c 1,36,37
 517 379 517 379 550 332 c 128,-1,38
 583 285 583 285 583 225 c 0,39,40
 583 163 583 163 553.5 108.5 c 128,-1,41
 524 54 524 54 465.5 20 c 128,-1,42
 407 -14 407 -14 324 -14 c 0,43,0
 283 -14 283 -14 247 -5 c 1,1,-1
EndSplineSet
EndChar
StartChar: ccedilla
Encoding: 231 231 127
Width: 632
GlyphClass: 2
Flags: W
AnchorPoint: "Anchor-1" 399 496 basechar 0
LayerCount: 2
Fore
SplineSet
169 -153 m 1,1,-1
 189 -122 l 1,2,3
 222 -142 222 -142 254 -142 c 0,4,5
 274 -142 274 -142 287 -132 c 128,-1,6
 300 -122 300 -122 300 -107 c 0,7,8
 300 -93 300 -93 289.5 -86 c 128,-1,9
 279 -79 279 -79 262 -79 c 2,10,-1
 232 -81 l 2,11,12
 225 -81 225 -81 221 -77.5 c 128,-1,13
 217 -74 217 -74 217 -68 c 0,14,15
 217 -59 217 -59 224 -52 c 2,16,-1
 262 -7 l 1,17,18
 181 9 181 9 136.5 67.5 c 128,-1,19
 92 126 92 126 92 208 c 0,20,21
 92 287 92 287 127.5 355.5 c 128,-1,22
 163 424 163 424 227.5 465.5 c 128,-1,23
 292 507 292 507 375 507 c 0,24,25
 444 507 444 507 497.5 477 c 128,-1,26
 551 447 551 447 575 389 c 1,27,-1
 502 364 l 1,28,29
 487 399 487 399 452 418 c 128,-1,30
 417 437 417 437 374 437 c 0,31,32
 313 437 313 437 268.5 405 c 128,-1,33
 224 373 224 373 201 321 c 128,-1,34
 178 269 178 269 178 211 c 0,35,36
 178 143 178 143 216 100.5 c 128,-1,37
 254 58 254 58 328 58 c 0,38,39
 372 58 372 58 407.5 74.5 c 128,-1,40
 443 91 443 91 463 124 c 1,41,-1
 536 94 l 1,42,43
 499 41 499 41 439 13 c 128,-1,44
 379 -15 379 -15 302 -11 c 1,45,-1
 271 -47 l 1,46,47
 278 -45 278 -45 290 -45 c 0,48,49
 320 -45 320 -45 340 -60.5 c 128,-1,50
 360 -76 360 -76 360 -100 c 0,51,52
 360 -136 360 -136 331.5 -158 c 128,-1,53
 303 -180 303 -180 260 -180 c 0,54,0
 212 -180 212 -180 169 -153 c 1,1,-1
EndSplineSet
EndChar
StartChar: eth
Encoding: 240 240 132
Width: 632
GlyphClass: 1
Flags: W
LayerCount: 2
Fore
SplineSet
162 14 m 128,-1,1
 110 40 110 40 80.5 87.5 c 128,-1,2
 51 135 51 135 51 197 c 0,3,4
 51 267 51 267 84.5 327.5 c 128,-1,5
 118 388 118 388 177.5 424.5 c 128,-1,6
 237 461 237 461 312 461 c 0,7,8
 381 461 381 461 433 428 c 128,-1,9
 485 395 485 395 503 336 c 1,10,11
 512 386 512 386 512 431 c 0,12,13
 512 519 512 519 472 576 c 1,14,-1
 404 520 l 1,15,-1
 374 558 l 1,16,-1
 437 609 l 1,17,18
 412 631 412 631 371.5 647 c 128,-1,19
 331 663 331 663 280 664 c 1,20,-1
 293 731 l 1,21,22
 416 724 416 724 495 659 c 1,23,-1
 561 712 l 1,24,-1
 591 675 l 1,25,-1
 531 626 l 1,26,27
 590 550 590 550 590 430 c 0,28,29
 590 334 590 334 559.5 232 c 128,-1,30
 529 130 529 130 459.5 59 c 128,-1,31
 390 -12 390 -12 281 -12 c 0,32,0
 214 -12 214 -12 162 14 c 128,-1,1
378.5 84 m 128,-1,34
 420 111 420 111 443 155.5 c 128,-1,35
 466 200 466 200 466 250 c 0,36,37
 466 311 466 311 426.5 351.5 c 128,-1,38
 387 392 387 392 320 392 c 0,39,40
 266 392 266 392 225 365.5 c 128,-1,41
 184 339 184 339 161.5 295.5 c 128,-1,42
 139 252 139 252 139 201 c 0,43,44
 139 135 139 135 178.5 96 c 128,-1,45
 218 57 218 57 285 57 c 0,46,33
 337 57 337 57 378.5 84 c 128,-1,34
EndSplineSet
EndChar
StartChar: oslash
Encoding: 248 248 179
Width: 632
GlyphClass: 2
Flags: W
AnchorPoint: "Anchor-3" 642 496 basechar 0
AnchorPoint: "Anchor-2" 502 10 basechar 0
AnchorPoint: "Anchor-1" 365 496 basechar 0
AnchorPoint: "Anchor-0" 263 0 basechar 0
LayerCount: 2
Fore
SplineSet
197.5 3.5 m 128,-1,1
 156 19 156 19 126 49 c 1,2,-1
 60 -9 l 1,3,-1
 28 28 l 1,4,-1
 94 86 l 1,5,6
 61 139 61 139 61 208 c 0,7,8
 61 291 61 291 96.5 359.5 c 128,-1,9
 132 428 132 428 196.5 467.5 c 128,-1,10
 261 507 261 507 344 507 c 0,11,12
 393 507 393 507 434 492 c 128,-1,13
 475 477 475 477 505 448 c 1,14,-1
 570 505 l 1,15,-1
 603 468 l 1,16,-1
 537 411 l 1,17,18
 571 358 571 358 571 287 c 0,19,20
 571 204 571 204 535.5 136 c 128,-1,21
 500 68 500 68 435.5 28 c 128,-1,22
 371 -12 371 -12 288 -12 c 0,23,0
 239 -12 239 -12 197.5 3.5 c 128,-1,1
395.5 91 m 128,-1,25
 439 124 439 124 461.5 176.5 c 128,-1,26
 484 229 484 229 484 285 c 0,27,28
 484 324 484 324 471 351 c 1,29,-1
 184 101 l 1,30,31
 222 58 222 58 292 58 c 0,32,24
 352 58 352 58 395.5 91 c 128,-1,25
340 437 m 0,34,35
 281 437 281 437 237.5 404 c 128,-1,36
 194 371 194 371 171 319 c 128,-1,37
 148 267 148 267 148 210 c 0,38,39
 148 179 148 179 160 146 c 1,40,-1
 447 396 l 1,41,33
 409 437 409 437 340 437 c 0,34,35
EndSplineSet
EndChar
StartChar: thorn
Encoding: 254 254 183
Width: 632
GlyphClass: 2
Flags: W
AnchorPoint: "Anchor-1" 367 496 basechar 0
AnchorPoint: "Anchor-0" 262 0 basechar 0
LayerCount: 2
Fore
SplineSet
186 708 m 1,0,-1
 272 708 l 1,1,-1
 211 419 l 1,2,3
 245 461 245 461 291.5 484 c 128,-1,4
 338 507 338 507 393 507 c 0,5,6
 480 507 480 507 531.5 449.5 c 128,-1,7
 583 392 583 392 583 299 c 0,8,9
 583 218 583 218 551 146.5 c 128,-1,10
 519 75 519 75 457.5 31.5 c 128,-1,11
 396 -12 396 -12 313 -12 c 0,12,13
 253 -12 253 -12 208 13 c 128,-1,14
 163 38 163 38 141 87 c 1,15,-1
 88 -162 l 1,16,-1
 2 -162 l 1,17,-1
 186 708 l 1,0,-1
411.5 95 m 128,-1,19
 456 132 456 132 476 186 c 128,-1,20
 496 240 496 240 496 290 c 0,21,22
 496 355 496 355 460.5 396 c 128,-1,23
 425 437 425 437 363 437 c 0,24,25
 299 437 299 437 255 399.5 c 128,-1,26
 211 362 211 362 189 306.5 c 128,-1,27
 167 251 167 251 167 198 c 0,28,29
 167 133 167 133 201 95.5 c 128,-1,30
 235 58 235 58 300 58 c 0,31,18
 367 58 367 58 411.5 95 c 128,-1,19
EndSplineSet
EndChar
StartChar: Dcroat
Encoding: 272 272 21
Width: 632
GlyphClass: 1
Flags: W
LayerCount: 2
Fore
SplineSet
86 312 m 1,0,-1
 34 312 l 1,1,-1
 50 386 l 1,2,-1
 102 386 l 1,3,-1
 162 668 l 1,4,-1
 282 668 l 2,5,6
 444 668 444 668 529.5 601 c 128,-1,7
 615 534 615 534 615 399 c 0,8,9
 615 307 615 307 580.5 216 c 128,-1,10
 546 125 546 125 465.5 62.5 c 128,-1,11
 385 0 385 0 256 0 c 2,12,-1
 20 0 l 1,13,-1
 86 312 l 1,0,-1
414 121.5 m 128,-1,15
 475 170 475 170 502 244.5 c 128,-1,16
 529 319 529 319 529 399 c 0,17,18
 529 595 529 595 282 595 c 2,19,-1
 230 595 l 1,20,-1
 186 386 l 1,21,-1
 358 386 l 1,22,-1
 342 312 l 1,23,-1
 170 312 l 1,24,-1
 119 73 l 1,25,-1
 257 73 l 2,26,14
 353 73 353 73 414 121.5 c 128,-1,15
EndSplineSet
EndChar
StartChar: dcroat
Encoding: 273 273 131
Width: 632
GlyphClass: 1
Flags: W
LayerCount: 2
Fore
SplineSet
102.5 45.5 m 128,-1,1
 51 103 51 103 51 196 c 0,2,3
 51 277 51 277 83 348.5 c 128,-1,4
 115 420 115 420 176 463.5 c 128,-1,5
 237 507 237 507 321 507 c 0,6,7
 383 507 383 507 427.5 480.5 c 128,-1,8
 472 454 472 454 492 404 c 1,9,-1
 524 556 l 1,10,-1
 365 556 l 1,11,-1
 376 607 l 1,12,-1
 535 607 l 1,13,-1
 557 708 l 1,14,-1
 642 708 l 1,15,-1
 621 607 l 1,16,-1
 683 607 l 1,17,-1
 672 556 l 1,18,-1
 610 556 l 1,19,-1
 531 186 l 2,20,21
 510 90 510 90 508 0 c 1,22,-1
 428 0 l 1,23,-1
 423 75 l 1,24,25
 387 32 387 32 340.5 10 c 128,-1,26
 294 -12 294 -12 241 -12 c 0,27,0
 154 -12 154 -12 102.5 45.5 c 128,-1,1
377.5 95.5 m 128,-1,29
 422 133 422 133 444 188.5 c 128,-1,30
 466 244 466 244 466 298 c 0,31,32
 466 362 466 362 432 399.5 c 128,-1,33
 398 437 398 437 334 437 c 0,34,35
 267 437 267 437 222.5 400 c 128,-1,36
 178 363 178 363 158 309 c 128,-1,37
 138 255 138 255 138 205 c 0,38,39
 138 139 138 139 173 98.5 c 128,-1,40
 208 58 208 58 270 58 c 0,41,28
 333 58 333 58 377.5 95.5 c 128,-1,29
EndSplineSet
EndChar
StartChar: eogonek
Encoding: 281 281 141
Width: 632
GlyphClass: 2
Flags: W
AnchorPoint: "Anchor-1" 261 496 basechar 0
LayerCount: 2
Fore
SplineSet
287.5 -162 m 128,-1,1
 257 -144 257 -144 257 -109 c 0,2,3
 257 -82 257 -82 273 -56.5 c 128,-1,4
 289 -31 289 -31 315 -11 c 1,5,6
 246 -13 246 -13 191.5 11 c 128,-1,7
 137 35 137 35 106 84 c 128,-1,8
 75 133 75 133 75 203 c 0,9,10
 75 283 75 283 109.5 353 c 128,-1,11
 144 423 144 423 207 465 c 128,-1,12
 270 507 270 507 351 507 c 0,13,14
 418 507 418 507 466 479.5 c 128,-1,15
 514 452 514 452 539.5 404.5 c 128,-1,16
 565 357 565 357 565 297 c 0,17,18
 565 264 565 264 558 233 c 1,19,-1
 159 233 l 1,20,21
 158 226 158 226 158 213 c 0,22,23
 158 139 158 139 198.5 98.5 c 128,-1,24
 239 58 239 58 314 58 c 0,25,26
 388 58 388 58 434 112 c 1,27,-1
 507 82 l 1,28,29
 470 37 470 37 410 6 c 0,30,31
 378 -9 378 -9 354.5 -36 c 128,-1,32
 331 -63 331 -63 331 -90 c 0,33,34
 331 -109 331 -109 345 -119 c 128,-1,35
 359 -129 359 -129 383 -129 c 0,36,37
 396 -129 396 -129 412 -125 c 1,38,-1
 401 -176 l 1,39,40
 386 -180 386 -180 367 -180 c 0,41,0
 318 -180 318 -180 287.5 -162 c 128,-1,1
474 366.5 m 128,-1,43
 458 400 458 400 425 419.5 c 128,-1,44
 392 439 392 439 347 439 c 0,45,46
 279 439 279 439 233.5 397.5 c 128,-1,47
 188 356 188 356 169 292 c 1,48,-1
 486 292 l 1,49,42
 490 333 490 333 474 366.5 c 128,-1,43
EndSplineSet
EndChar
StartChar: uni0123
Encoding: 291 291 145
Width: 632
GlyphClass: 2
Flags: W
AnchorPoint: "Anchor-1" 437 760 basechar 0
AnchorPoint: "Anchor-0" 214 -251 basechar 0
LayerCount: 2
Fore
SplineSet
122 -162 m 128,-1,1
 60 -133 60 -133 43 -75 c 1,2,-1
 120 -50 l 1,3,4
 131 -86 131 -86 172.5 -103.5 c 128,-1,5
 214 -121 214 -121 264 -121 c 0,6,7
 318 -121 318 -121 356.5 -94.5 c 128,-1,8
 395 -68 395 -68 406 -12 c 2,9,-1
 427 86 l 1,10,11
 391 50 391 50 345.5 29.5 c 128,-1,12
 300 9 300 9 249 9 c 0,13,14
 189 9 189 9 146 36.5 c 128,-1,15
 103 64 103 64 81 110 c 128,-1,16
 59 156 59 156 59 213 c 0,17,18
 59 292 59 292 92 359 c 128,-1,19
 125 426 125 426 185.5 466.5 c 128,-1,20
 246 507 246 507 325 507 c 0,21,22
 380 507 380 507 426.5 480.5 c 128,-1,23
 473 454 473 454 494 408 c 1,24,-1
 529 496 l 1,25,-1
 598 496 l 1,26,-1
 491 -14 l 2,27,28
 472 -102 472 -102 411.5 -146.5 c 128,-1,29
 351 -191 351 -191 257 -191 c 0,30,0
 184 -191 184 -191 122 -162 c 128,-1,1
396.5 124 m 128,-1,32
 446 169 446 169 463 249 c 0,33,34
 469 276 469 276 469 302 c 0,35,36
 469 363 469 363 435 400 c 128,-1,37
 401 437 401 437 336 437 c 0,38,39
 275 437 275 437 232 406.5 c 128,-1,40
 189 376 189 376 167.5 326.5 c 128,-1,41
 146 277 146 277 146 221 c 0,42,43
 146 158 146 158 180.5 118.5 c 128,-1,44
 215 79 215 79 280 79 c 0,45,31
 347 79 347 79 396.5 124 c 128,-1,32
337 645 m 0,47,48
 337 679 337 679 358 706 c 128,-1,49
 379 733 379 733 411.5 747.5 c 128,-1,50
 444 762 444 762 478 759 c 1,51,-1
 508 725 l 1,52,53
 468 726 468 726 436.5 706.5 c 128,-1,54
 405 687 405 687 405 647 c 0,55,56
 405 616 405 616 436 596 c 1,57,-1
 376 574 l 1,58,46
 337 604 337 604 337 645 c 0,47,48
EndSplineSet
EndChar
StartChar: Hbar
Encoding: 294 294 38
Width: 632
GlyphClass: 1
Flags: W
LayerCount: 2
Fore
SplineSet
117 512 m 1,0,-1
 65 512 l 1,1,-1
 78 572 l 1,2,-1
 130 572 l 1,3,-1
 150 668 l 1,4,-1
 238 668 l 1,5,-1
 218 572 l 1,6,-1
 552 572 l 1,7,-1
 572 668 l 1,8,-1
 660 668 l 1,9,-1
 640 572 l 1,10,-1
 692 572 l 1,11,-1
 679 512 l 1,12,-1
 627 512 l 1,13,-1
 518 0 l 1,14,-1
 430 0 l 1,15,-1
 495 306 l 1,16,-1
 161 306 l 1,17,-1
 96 0 l 1,18,-1
 8 0 l 1,19,-1
 117 512 l 1,0,-1
511 383 m 1,20,-1
 539 512 l 1,21,-1
 205 512 l 1,22,-1
 177 383 l 1,23,-1
 511 383 l 1,20,-1
EndSplineSet
EndChar
StartChar: hbar
Encoding: 295 295 148
Width: 632
GlyphClass: 1
Flags: W
LayerCount: 2
Fore
SplineSet
169 556 m 1,0,-1
 107 556 l 1,1,-1
 118 607 l 1,2,-1
 180 607 l 1,3,-1
 201 708 l 1,4,-1
 287 708 l 1,5,-1
 265 607 l 1,6,-1
 425 607 l 1,7,-1
 414 556 l 1,8,-1
 255 556 l 1,9,-1
 226 423 l 1,10,11
 253 455 253 455 299.5 481 c 128,-1,12
 346 507 346 507 401 507 c 0,13,14
 478 507 478 507 515 468 c 128,-1,15
 552 429 552 429 552 364 c 0,16,17
 552 336 552 336 546 306 c 2,18,-1
 480 0 l 1,19,-1
 395 0 l 1,20,-1
 457 292 l 2,21,22
 463 321 463 321 463 346 c 0,23,24
 463 437 463 437 365 437 c 0,25,26
 306 437 306 437 257.5 390.5 c 128,-1,27
 209 344 209 344 193 266 c 2,28,-1
 137 0 l 1,29,-1
 51 0 l 1,30,-1
 169 556 l 1,0,-1
EndSplineSet
EndChar
StartChar: Iogonek
Encoding: 302 302 47
Width: 632
GlyphClass: 2
Flags: W
AnchorPoint: "Anchor-1" 405 668 basechar 0
LayerCount: 2
Fore
SplineSet
94 65 m 1,0,-1
 233 65 l 1,1,-1
 347 603 l 1,2,-1
 209 603 l 1,3,-1
 222 668 l 1,4,-1
 588 668 l 1,5,-1
 574 603 l 1,6,-1
 435 603 l 1,7,-1
 321 65 l 1,8,-1
 459 65 l 1,9,-1
 446 0 l 1,10,11
 407 -9 407 -9 373.5 -32.5 c 128,-1,12
 340 -56 340 -56 340 -85 c 0,13,14
 340 -118 340 -118 390 -118 c 0,15,16
 407 -118 407 -118 421 -114 c 1,17,-1
 410 -166 l 1,18,19
 393 -170 393 -170 375 -170 c 0,20,21
 330 -170 330 -170 298 -151.5 c 128,-1,22
 266 -133 266 -133 266 -99 c 0,23,24
 266 -41 266 -41 349 0 c 1,25,-1
 80 0 l 1,26,-1
 94 65 l 1,0,-1
EndSplineSet
EndChar
StartChar: iogonek
Encoding: 303 303 156
Width: 632
GlyphClass: 2
Flags: W
AnchorPoint: "Anchor-1" 417 715 basechar 0
LayerCount: 2
Fore
SplineSet
72 67 m 1,0,-1
 247 67 l 1,1,-1
 324 429 l 1,2,-1
 174 429 l 1,3,-1
 189 496 l 1,4,-1
 424 496 l 1,5,-1
 332 67 l 1,6,-1
 507 67 l 1,7,-1
 493 0 l 1,8,9
 451 -11 451 -11 419 -34.5 c 128,-1,10
 387 -58 387 -58 387 -86 c 0,11,12
 387 -103 387 -103 401 -110.5 c 128,-1,13
 415 -118 415 -118 437 -118 c 0,14,15
 456 -118 456 -118 468 -115 c 1,16,-1
 457 -166 l 1,17,18
 440 -170 440 -170 418 -170 c 0,19,20
 374 -170 374 -170 343.5 -151.5 c 128,-1,21
 313 -133 313 -133 313 -100 c 0,22,23
 313 -44 313 -44 395 0 c 1,24,-1
 57 0 l 1,25,-1
 72 67 l 1,0,-1
360 611 m 128,-1,27
 342 629 342 629 342 654 c 256,28,29
 342 679 342 679 360 697 c 128,-1,30
 378 715 378 715 403 715 c 256,31,32
 428 715 428 715 446 697 c 128,-1,33
 464 679 464 679 464 654 c 256,34,35
 464 629 464 629 446.5 611 c 128,-1,36
 429 593 429 593 403 593 c 0,37,26
 378 593 378 593 360 611 c 128,-1,27
EndSplineSet
EndChar
StartChar: dotlessi
Encoding: 305 305 150
Width: 632
GlyphClass: 2
Flags: W
AnchorPoint: "Anchor-2" 495 10 basechar 0
AnchorPoint: "Anchor-1" 370 496 basechar 0
AnchorPoint: "Anchor-0" 257 0 basechar 0
LayerCount: 2
Fore
SplineSet
72 67 m 1,0,-1
 247 67 l 1,1,-1
 324 429 l 1,2,-1
 174 429 l 1,3,-1
 189 496 l 1,4,-1
 424 496 l 1,5,-1
 332 67 l 1,6,-1
 507 67 l 1,7,-1
 493 0 l 1,8,-1
 57 0 l 1,9,-1
 72 67 l 1,0,-1
EndSplineSet
EndChar
StartChar: ij
Encoding: 307 307 157
Width: 632
GlyphClass: 1
Flags: W
LayerCount: 2
Fore
SplineSet
223 -90 m 1,0,-1
 309 -90 l 2,1,2
 336 -90 336 -90 349.5 -85 c 128,-1,3
 363 -80 363 -80 371.5 -63.5 c 128,-1,4
 380 -47 380 -47 388 -11 c 2,5,-1
 482 429 l 1,6,-1
 418 429 l 1,7,-1
 432 496 l 1,8,-1
 581 496 l 1,9,-1
 471 -25 l 2,10,11
 459 -82 459 -82 440 -111 c 128,-1,12
 421 -140 421 -140 392 -150.5 c 128,-1,13
 363 -161 363 -161 314 -161 c 2,14,-1
 208 -161 l 1,15,-1
 223 -90 l 1,0,-1
187 429 m 1,16,-1
 124 429 l 1,17,-1
 138 496 l 1,18,-1
 286 496 l 1,19,-1
 181 0 l 1,20,-1
 95 0 l 1,21,-1
 187 429 l 1,16,-1
223 611 m 128,-1,23
 205 629 205 629 205 654 c 256,24,25
 205 679 205 679 223.5 697 c 128,-1,26
 242 715 242 715 267 715 c 256,27,28
 292 715 292 715 310 697 c 128,-1,29
 328 679 328 679 328 654 c 256,30,31
 328 629 328 629 310 611 c 128,-1,32
 292 593 292 593 267 593 c 0,33,22
 241 593 241 593 223 611 c 128,-1,23
518 611 m 128,-1,35
 500 629 500 629 500 654 c 256,36,37
 500 679 500 679 518 697 c 128,-1,38
 536 715 536 715 561 715 c 256,39,40
 586 715 586 715 604.5 697 c 128,-1,41
 623 679 623 679 623 654 c 256,42,43
 623 629 623 629 605 611 c 128,-1,44
 587 593 587 593 561 593 c 0,45,34
 536 593 536 593 518 611 c 128,-1,35
EndSplineSet
EndChar
StartChar: Lslash
Encoding: 321 321 55
Width: 632
GlyphClass: 1
Flags: W
LayerCount: 2
Fore
SplineSet
134 249 m 1,0,-1
 18 190 l 1,1,-1
 36 272 l 1,2,-1
 151 331 l 1,3,-1
 223 668 l 1,4,-1
 311 668 l 1,5,-1
 250 381 l 1,6,-1
 460 488 l 1,7,-1
 443 406 l 1,8,-1
 233 299 l 1,9,-1
 185 77 l 1,10,-1
 546 77 l 1,11,-1
 530 0 l 1,12,-1
 81 0 l 1,13,-1
 134 249 l 1,0,-1
EndSplineSet
EndChar
StartChar: lslash
Encoding: 322 322 166
Width: 632
GlyphClass: 1
Flags: W
LayerCount: 2
Fore
SplineSet
219.5 17.5 m 128,-1,1
 191 35 191 35 191 76 c 0,2,3
 191 96 191 96 197 121 c 2,4,-1
 228 267 l 1,5,-1
 158 229 l 1,6,-1
 173 301 l 1,7,-1
 243 339 l 1,8,-1
 307 641 l 1,9,-1
 192 641 l 1,10,-1
 206 708 l 1,11,-1
 407 708 l 1,12,-1
 339 388 l 1,13,-1
 456 451 l 1,14,-1
 440 379 l 1,15,-1
 324 316 l 1,16,-1
 284 130 l 2,17,18
 281 115 281 115 281 104 c 0,19,20
 281 86 281 86 293.5 78.5 c 128,-1,21
 306 71 306 71 338 71 c 2,22,-1
 507 71 l 1,23,-1
 492 0 l 1,24,-1
 317 0 l 2,25,0
 248 0 248 0 219.5 17.5 c 128,-1,1
EndSplineSet
EndChar
StartChar: OE
Encoding: 338 338 70
Width: 632
GlyphClass: 2
Flags: W
AnchorPoint: "Anchor-1" 406 668 basechar 0
AnchorPoint: "Anchor-0" 264 0 basechar 0
LayerCount: 2
Fore
SplineSet
47 49.5 m 128,-1,1
 11 111 11 111 11 208 c 0,2,3
 11 298 11 298 41 409 c 128,-1,4
 71 520 71 520 132 600 c 128,-1,5
 193 680 193 680 282 680 c 0,6,7
 333 680 333 680 365.5 652.5 c 128,-1,8
 398 625 398 625 413 578 c 1,9,-1
 432 668 l 1,10,-1
 707 668 l 1,11,-1
 691 597 l 1,12,-1
 491 597 l 1,13,-1
 445 379 l 1,14,-1
 587 379 l 1,15,-1
 572 308 l 1,16,-1
 430 308 l 1,17,-1
 380 71 l 1,18,-1
 583 71 l 1,19,-1
 568 0 l 1,20,-1
 290 0 l 1,21,-1
 303 60 l 1,22,23
 241 -12 241 -12 165 -12 c 0,24,0
 83 -12 83 -12 47 49.5 c 128,-1,1
287.5 127 m 128,-1,26
 331 198 331 198 353 294.5 c 128,-1,27
 375 391 375 391 375 462 c 0,28,29
 375 529 375 529 353.5 570.5 c 128,-1,30
 332 612 332 612 282 612 c 0,31,32
 220 612 220 612 176.5 539 c 128,-1,33
 133 466 133 466 111.5 369 c 128,-1,34
 90 272 90 272 90 204 c 0,35,36
 90 56 90 56 182 56 c 0,37,25
 244 56 244 56 287.5 127 c 128,-1,26
EndSplineSet
EndChar
StartChar: oe
Encoding: 339 339 181
Width: 632
GlyphClass: 2
Flags: W
AnchorPoint: "Anchor-1" 359 496 basechar 0
AnchorPoint: "Anchor-0" 254 0 basechar 0
LayerCount: 2
Fore
SplineSet
338 17 m 128,-1,1
 306 46 306 46 295 95 c 1,2,3
 264 41 264 41 223 14.5 c 128,-1,4
 182 -12 182 -12 140 -12 c 0,5,6
 69 -12 69 -12 36 39 c 128,-1,7
 3 90 3 90 3 170 c 0,8,9
 3 241 3 241 27.5 319.5 c 128,-1,10
 52 398 52 398 102.5 452.5 c 128,-1,11
 153 507 153 507 227 507 c 0,12,13
 327 507 327 507 352 397 c 1,14,15
 381 450 381 450 420.5 478.5 c 128,-1,16
 460 507 460 507 506 507 c 0,17,18
 573 507 573 507 606 457.5 c 128,-1,19
 639 408 639 408 639 331 c 0,20,21
 639 282 639 282 627 234 c 1,22,-1
 352 234 l 1,23,24
 347 201 347 201 347 173 c 0,25,26
 347 118 347 118 367 84 c 128,-1,27
 387 50 387 50 433 50 c 0,28,29
 460 50 460 50 480.5 64 c 128,-1,30
 501 78 501 78 521 108 c 1,31,-1
 582 84 l 1,32,33
 515 -12 515 -12 426 -12 c 0,34,0
 370 -12 370 -12 338 17 c 128,-1,1
231 100 m 128,-1,36
 265 143 265 143 282 204 c 128,-1,37
 299 265 299 265 299 316 c 0,38,39
 299 369 299 369 280 404 c 128,-1,40
 261 439 261 439 219 439 c 0,41,42
 172 439 172 439 139 395 c 128,-1,43
 106 351 106 351 89 290 c 128,-1,44
 72 229 72 229 72 179 c 0,45,46
 72 126 72 126 90.5 91.5 c 128,-1,47
 109 57 109 57 150 57 c 0,48,35
 197 57 197 57 231 100 c 128,-1,36
570 339 m 0,50,51
 570 386 570 386 553 415 c 128,-1,52
 536 444 536 444 497 444 c 0,53,54
 450 444 450 444 416.5 400 c 128,-1,55
 383 356 383 356 364 289 c 1,56,-1
 566 289 l 1,57,49
 570 312 570 312 570 339 c 0,50,51
EndSplineSet
EndChar
StartChar: Scedilla
Encoding: 350 350 80
Width: 632
GlyphClass: 2
Flags: W
AnchorPoint: "Anchor-1" 395 668 basechar 0
LayerCount: 2
Fore
SplineSet
171 -153 m 1,1,-1
 191 -122 l 1,2,3
 224 -142 224 -142 256 -142 c 0,4,5
 276 -142 276 -142 289 -132 c 128,-1,6
 302 -122 302 -122 302 -107 c 0,7,8
 302 -93 302 -93 291 -86 c 128,-1,9
 280 -79 280 -79 263 -79 c 2,10,-1
 234 -81 l 2,11,12
 227 -81 227 -81 223 -77.5 c 128,-1,13
 219 -74 219 -74 219 -68 c 0,14,15
 219 -59 219 -59 226 -52 c 2,16,-1
 261 -10 l 1,17,18
 185 -3 185 -3 126 38.5 c 128,-1,19
 67 80 67 80 51 149 c 1,20,-1
 134 177 l 1,21,22
 144 121 144 121 192 91 c 128,-1,23
 240 61 240 61 304 61 c 0,24,25
 374 61 374 61 420.5 97.5 c 128,-1,26
 467 134 467 134 467 191 c 0,27,28
 467 229 467 229 435.5 254 c 128,-1,29
 404 279 404 279 350 298 c 2,30,-1
 273 326 l 2,31,32
 130 375 130 375 130 485 c 0,33,34
 130 542 130 542 164.5 586.5 c 128,-1,35
 199 631 199 631 256 655.5 c 128,-1,36
 313 680 313 680 377 680 c 0,37,38
 454 680 454 680 514.5 647.5 c 128,-1,39
 575 615 575 615 599 552 c 1,40,-1
 516 523 l 1,41,42
 500 563 500 563 458.5 585 c 128,-1,43
 417 607 417 607 368 607 c 0,44,45
 308 607 308 607 264 577 c 128,-1,46
 220 547 220 547 220 498 c 0,47,48
 220 462 220 462 241.5 440 c 128,-1,49
 263 418 263 418 308 401 c 2,50,-1
 389 372 l 2,51,52
 472 342 472 342 514.5 303 c 128,-1,53
 557 264 557 264 557 204 c 0,54,55
 557 141 557 141 523 92.5 c 128,-1,56
 489 44 489 44 431 17 c 128,-1,57
 373 -10 373 -10 303 -12 c 1,58,-1
 273 -47 l 1,59,60
 279 -45 279 -45 292 -45 c 0,61,62
 322 -45 322 -45 342 -60.5 c 128,-1,63
 362 -76 362 -76 362 -100 c 0,64,65
 362 -137 362 -137 333 -158.5 c 128,-1,66
 304 -180 304 -180 261 -180 c 0,67,0
 214 -180 214 -180 171 -153 c 1,1,-1
EndSplineSet
Substitution2: "'locl' Localized Forms in Latin lookup 4 subtable" uni0218
AlternateSubs2: "'aalt' Access All Alternates in Latin lookup 0 subtable" uni0218
EndChar
StartChar: scedilla
Encoding: 351 351 191
Width: 632
GlyphClass: 2
Flags: W
AnchorPoint: "Anchor-1" 363 496 basechar 0
LayerCount: 2
Fore
SplineSet
169 -153 m 1,1,-1
 189 -122 l 1,2,3
 222 -142 222 -142 254 -142 c 0,4,5
 274 -142 274 -142 287 -132 c 128,-1,6
 300 -122 300 -122 300 -107 c 0,7,8
 300 -93 300 -93 289 -86 c 128,-1,9
 278 -79 278 -79 261 -79 c 2,10,-1
 232 -81 l 2,11,12
 225 -81 225 -81 221 -77.5 c 128,-1,13
 217 -74 217 -74 217 -68 c 0,14,15
 217 -59 217 -59 224 -52 c 2,16,-1
 260 -10 l 1,17,18
 193 -1 193 -1 143.5 30 c 128,-1,19
 94 61 94 61 77 116 c 1,20,-1
 155 143 l 1,21,22
 165 98 165 98 208.5 76.5 c 128,-1,23
 252 55 252 55 307 55 c 0,24,25
 359 55 359 55 394 76.5 c 128,-1,26
 429 98 429 98 429 138 c 0,27,28
 429 166 429 166 406 182 c 128,-1,29
 383 198 383 198 335 213 c 2,30,-1
 258 238 l 2,31,32
 200 257 200 257 169 287.5 c 128,-1,33
 138 318 138 318 138 363 c 256,34,35
 138 408 138 408 166 440.5 c 128,-1,36
 194 473 194 473 240.5 490 c 128,-1,37
 287 507 287 507 339 507 c 0,38,39
 409 507 409 507 464.5 480.5 c 128,-1,40
 520 454 520 454 540 400 c 1,41,-1
 464 373 l 1,42,43
 454 408 454 408 416 424 c 128,-1,44
 378 440 378 440 332 440 c 256,45,46
 286 440 286 440 253.5 422 c 128,-1,47
 221 404 221 404 221 371 c 0,48,49
 221 328 221 328 295 305 c 2,50,-1
 374 279 l 2,51,52
 443 256 443 256 477.5 226 c 128,-1,53
 512 196 512 196 512 149 c 0,54,55
 512 105 512 105 487 68 c 128,-1,56
 462 31 462 31 414.5 9.5 c 128,-1,57
 367 -12 367 -12 301 -12 c 1,58,-1
 271 -47 l 1,59,60
 277 -45 277 -45 290 -45 c 0,61,62
 320 -45 320 -45 339.5 -60.5 c 128,-1,63
 359 -76 359 -76 359 -100 c 0,64,65
 359 -137 359 -137 330.5 -158.5 c 128,-1,66
 302 -180 302 -180 259 -180 c 0,67,0
 212 -180 212 -180 169 -153 c 1,1,-1
EndSplineSet
Substitution2: "'locl' Localized Forms in Latin lookup 4 subtable" uni0219
AlternateSubs2: "'aalt' Access All Alternates in Latin lookup 0 subtable" uni0219
EndChar
StartChar: uni0163
Encoding: 355 355 196
Width: 632
GlyphClass: 2
Flags: W
AnchorPoint: "Anchor-3" 403 545 basechar 0
AnchorPoint: "Anchor-1" 339 496 basechar 0
LayerCount: 2
Fore
SplineSet
167 -153 m 1,1,-1
 187 -122 l 1,2,3
 218 -142 218 -142 251 -142 c 0,4,5
 271 -142 271 -142 284 -132 c 128,-1,6
 297 -122 297 -122 297 -107 c 0,7,8
 297 -93 297 -93 286.5 -86 c 128,-1,9
 276 -79 276 -79 259 -79 c 2,10,-1
 230 -81 l 2,11,12
 215 -81 215 -81 215 -69 c 0,13,14
 215 -59 215 -59 222 -52 c 2,15,-1
 267 3 l 1,16,17
 228 8 228 8 210.5 26 c 128,-1,18
 193 44 193 44 193 79 c 0,19,20
 193 101 193 101 201 136 c 2,21,-1
 263 429 l 1,22,-1
 156 429 l 1,23,-1
 171 496 l 1,24,-1
 278 496 l 1,25,-1
 304 620 l 1,26,-1
 389 620 l 1,27,-1
 363 496 l 1,28,-1
 574 496 l 1,29,-1
 559 429 l 1,30,-1
 348 429 l 1,31,-1
 287 141 l 2,32,33
 283 124 283 124 283 108 c 0,34,35
 283 87 283 87 295.5 79 c 128,-1,36
 308 71 308 71 339 71 c 2,37,-1
 433 71 l 1,38,-1
 418 0 l 1,39,-1
 309 0 l 1,40,-1
 269 -47 l 1,41,42
 275 -45 275 -45 288 -45 c 0,43,44
 317 -45 317 -45 337 -60.5 c 128,-1,45
 357 -76 357 -76 357 -100 c 0,46,47
 357 -136 357 -136 328.5 -158 c 128,-1,48
 300 -180 300 -180 257 -180 c 0,49,0
 210 -180 210 -180 167 -153 c 1,1,-1
EndSplineSet
Substitution2: "'locl' Localized Forms in Latin lookup 4 subtable" uni021B
AlternateSubs2: "'aalt' Access All Alternates in Latin lookup 0 subtable" uni021B
EndChar
StartChar: florin
Encoding: 402 402 286
Width: 632
GlyphClass: 1
Flags: W
LayerCount: 2
Fore
SplineSet
0 -152 m 1,1,-1
 15 -78 l 1,2,3
 31 -88 31 -88 55 -93.5 c 128,-1,4
 79 -99 79 -99 97 -99 c 0,5,6
 148 -99 148 -99 178.5 -64.5 c 128,-1,7
 209 -30 209 -30 223 41 c 2,8,-1
 306 432 l 1,9,-1
 128 432 l 1,10,-1
 142 496 l 1,11,-1
 321 496 l 1,12,-1
 339 582 l 2,13,14
 350 632 350 632 363 657.5 c 128,-1,15
 376 683 376 683 399.5 694 c 128,-1,16
 423 705 423 705 465 705 c 2,17,-1
 642 705 l 1,18,-1
 628 636 l 1,19,-1
 470 636 l 2,20,21
 448 636 448 636 438 626.5 c 128,-1,22
 428 617 428 617 422 590 c 2,23,-1
 401 496 l 1,24,-1
 598 496 l 1,25,-1
 584 432 l 1,26,-1
 387 432 l 1,27,-1
 301 27 l 2,28,29
 277 -85 277 -85 226.5 -128.5 c 128,-1,30
 176 -172 176 -172 102 -172 c 0,31,0
 43 -172 43 -172 0 -152 c 1,1,-1
EndSplineSet
EndChar
StartChar: uni02C9
Encoding: 713 713 364
Width: 632
GlyphClass: 1
Flags: W
LayerCount: 2
Fore
SplineSet
268 669 m 1,0,-1
 543 669 l 1,1,-1
 530 603 l 1,2,-1
 255 603 l 1,3,-1
 268 669 l 1,0,-1
EndSplineSet
EndChar
StartChar: acutecomb
Encoding: 769 769 342
Width: 0
GlyphClass: 4
Flags: W
AnchorPoint: "Anchor-5" 366 706 basemark 0
AnchorPoint: "Anchor-5" 322 496 mark 0
AnchorPoint: "Anchor-1" 322 496 mark 0
LayerCount: 2
Fore
SplineSet
436 698.5 m 128,-1,1
 448 706 448 706 462 706 c 0,2,3
 477 706 477 706 485.5 698 c 128,-1,4
 494 690 494 690 494 678 c 0,5,6
 494 662 494 662 483.5 650 c 128,-1,7
 473 638 473 638 446 619 c 2,8,-1
 379 571 l 1,9,-1
 304 571 l 1,10,-1
 406 674 l 2,11,0
 424 691 424 691 436 698.5 c 128,-1,1
EndSplineSet
Substitution2: "Single Substitution lookup 12 subtable" acutecomb.case
Substitution2: "'case' Case-Sensitive Forms in Latin lookup 9 subtable" acutecomb.case
AlternateSubs2: "'aalt' Access All Alternates in Latin lookup 0 subtable" acutecomb.case
EndChar
StartChar: uni0302
Encoding: 770 770 347
Width: 0
GlyphClass: 4
Flags: W
AnchorPoint: "Anchor-5" 411 694 basemark 0
AnchorPoint: "Anchor-5" 369 496 mark 0
AnchorPoint: "Anchor-1" 369 496 mark 0
LayerCount: 2
Fore
SplineSet
412 694 m 0,1,2
 436 694 436 694 452 673 c 2,3,-1
 532 575 l 1,4,-1
 458 575 l 1,5,-1
 402 636 l 1,6,-1
 321 575 l 1,7,-1
 239 575 l 1,8,-1
 361 673 l 2,9,0
 387 694 387 694 412 694 c 0,1,2
EndSplineSet
Substitution2: "Single Substitution lookup 12 subtable" uni0302.case
Substitution2: "'case' Case-Sensitive Forms in Latin lookup 9 subtable" uni0302.case
AlternateSubs2: "'aalt' Access All Alternates in Latin lookup 0 subtable" uni0302.case
EndChar
StartChar: tildecomb
Encoding: 771 771 355
Width: 0
GlyphClass: 4
Flags: W
AnchorPoint: "Anchor-5" 406 668 basemark 0
AnchorPoint: "Anchor-5" 369 496 mark 0
AnchorPoint: "Anchor-1" 369 496 mark 0
LayerCount: 2
Fore
SplineSet
418 579.5 m 128,-1,1
 405 585 405 585 384 596 c 0,2,3
 369 605 369 605 360 609 c 128,-1,4
 351 613 351 613 340 613 c 0,5,6
 322 613 322 613 308.5 603.5 c 128,-1,7
 295 594 295 594 288 576 c 1,8,-1
 233 576 l 1,9,10
 251 622 251 622 281 644 c 128,-1,11
 311 666 311 666 350 666 c 0,12,13
 369 666 369 666 382.5 660.5 c 128,-1,14
 396 655 396 655 413 644 c 0,15,16
 426 635 426 635 436 631 c 128,-1,17
 446 627 446 627 459 627 c 0,18,19
 473 627 473 627 483.5 633.5 c 128,-1,20
 494 640 494 640 505 652 c 0,21,22
 520 669 520 669 535 669 c 0,23,24
 543 669 543 669 548.5 664 c 128,-1,25
 554 659 554 659 554 650 c 0,26,27
 554 635 554 635 538.5 617 c 128,-1,28
 523 599 523 599 499 586.5 c 128,-1,29
 475 574 475 574 451 574 c 0,30,0
 431 574 431 574 418 579.5 c 128,-1,1
EndSplineSet
Substitution2: "Single Substitution lookup 12 subtable" tildecomb.case
Substitution2: "'case' Case-Sensitive Forms in Latin lookup 9 subtable" tildecomb.case
AlternateSubs2: "'aalt' Access All Alternates in Latin lookup 0 subtable" tildecomb.case
EndChar
StartChar: uni0306
Encoding: 774 774 351
Width: 0
GlyphClass: 4
Flags: W
AnchorPoint: "Anchor-5" 408 680 basemark 0
AnchorPoint: "Anchor-5" 369 496 mark 0
AnchorPoint: "Anchor-1" 369 496 mark 0
LayerCount: 2
Fore
SplineSet
314.5 599 m 128,-1,1
 285 629 285 629 282 676 c 1,2,-1
 336 676 l 1,3,4
 340 650 340 650 357.5 636.5 c 128,-1,5
 375 623 375 623 400 623 c 0,6,7
 429 623 429 623 450 639 c 128,-1,8
 471 655 471 655 479 676 c 1,9,-1
 532 676 l 1,10,11
 518 628 518 628 481.5 598.5 c 128,-1,12
 445 569 445 569 394 569 c 0,13,0
 344 569 344 569 314.5 599 c 128,-1,1
EndSplineSet
Substitution2: "Single Substitution lookup 12 subtable" uni0306.case
Substitution2: "'case' Case-Sensitive Forms in Latin lookup 9 subtable" uni0306.case
AlternateSubs2: "'aalt' Access All Alternates in Latin lookup 0 subtable" uni0306.case
EndChar
StartChar: uni030C
Encoding: 780 780 349
Width: 0
GlyphClass: 4
Flags: W
AnchorPoint: "Anchor-5" 409 688 basemark 0
AnchorPoint: "Anchor-5" 368 496 mark 0
AnchorPoint: "Anchor-1" 368 496 mark 0
LayerCount: 2
Fore
SplineSet
343 590 m 2,1,-1
 263 688 l 1,2,-1
 337 688 l 1,3,-1
 392 628 l 1,4,-1
 475 688 l 1,5,-1
 556 688 l 1,6,-1
 435 590 l 2,7,8
 410 569 410 569 385 569 c 256,9,0
 360 569 360 569 343 590 c 2,1,-1
EndSplineSet
Substitution2: "Single Substitution lookup 12 subtable" uni030C.case
Substitution2: "'case' Case-Sensitive Forms in Latin lookup 9 subtable" uni030C.case
AlternateSubs2: "'aalt' Access All Alternates in Latin lookup 0 subtable" uni030C.case
EndChar
StartChar: uni0326
Encoding: 806 806 359
Width: 0
GlyphClass: 4
Flags: W
AnchorPoint: "Anchor-4" 212 -240 basemark 0
AnchorPoint: "Anchor-4" 263 0 mark 0
AnchorPoint: "Anchor-0" 263 0 mark 0
LayerCount: 2
Fore
SplineSet
211.5 -183.5 m 128,-1,1
 243 -164 243 -164 243 -124 c 0,2,3
 243 -94 243 -94 213 -73 c 1,4,-1
 272 -51 l 1,5,6
 311 -80 311 -80 311 -122 c 0,7,8
 311 -156 311 -156 290 -183 c 128,-1,9
 269 -210 269 -210 236.5 -224.5 c 128,-1,10
 204 -239 204 -239 170 -236 c 1,11,-1
 140 -202 l 1,12,0
 180 -203 180 -203 211.5 -183.5 c 128,-1,1
EndSplineSet
EndChar
StartChar: uni03A9
Encoding: 937 937 226
Width: 632
GlyphClass: 1
Flags: W
LayerCount: 2
Fore
SplineSet
-9 69 m 1,0,-1
 149 69 l 1,1,-1
 162 131 l 1,2,3
 113 161 113 161 86 217 c 128,-1,4
 59 273 59 273 59 341 c 0,5,6
 59 431 59 431 102.5 509 c 128,-1,7
 146 587 146 587 219.5 633.5 c 128,-1,8
 293 680 293 680 380 680 c 0,9,10
 454 680 454 680 511 646 c 128,-1,11
 568 612 568 612 599.5 553.5 c 128,-1,12
 631 495 631 495 631 424 c 0,13,14
 631 332 631 332 579.5 251 c 128,-1,15
 528 170 528 170 416 122 c 1,16,-1
 405 69 l 1,17,-1
 563 69 l 1,18,-1
 549 0 l 1,19,-1
 317 0 l 1,20,-1
 353 171 l 1,21,22
 448 194 448 194 503 258.5 c 128,-1,23
 558 323 558 323 558 414 c 0,24,25
 558 471 558 471 534 515.5 c 128,-1,26
 510 560 510 560 468 585.5 c 128,-1,27
 426 611 426 611 373 611 c 0,28,29
 306 611 306 611 251 575 c 128,-1,30
 196 539 196 539 164 479.5 c 128,-1,31
 132 420 132 420 132 353 c 0,32,33
 132 288 132 288 162.5 238 c 128,-1,34
 193 188 193 188 245 171 c 1,35,-1
 209 0 l 1,36,-1
 -23 0 l 1,37,-1
 -9 69 l 1,0,-1
EndSplineSet
EndChar
StartChar: uni1E9E
Encoding: 7838 7838 82
Width: 632
GlyphClass: 1
Flags: W
LayerCount: 2
Fore
SplineSet
280 18.5 m 128,-1,1
 238 49 238 49 226 105 c 1,2,-1
 298 130 l 1,3,4
 303 94 303 94 327 77.5 c 128,-1,5
 351 61 351 61 388 61 c 0,6,7
 423 61 423 61 449.5 81 c 128,-1,8
 476 101 476 101 490 132.5 c 128,-1,9
 504 164 504 164 504 198 c 0,10,11
 504 239 504 239 480 265.5 c 128,-1,12
 456 292 456 292 413 292 c 0,13,14
 391 292 391 292 376 287 c 1,15,-1
 354 349 l 1,16,-1
 571 592 l 1,17,18
 486 609 486 609 418 609 c 0,19,20
 356 609 356 609 313.5 596.5 c 128,-1,21
 271 584 271 584 243 550 c 128,-1,22
 215 516 215 516 202 455 c 2,23,-1
 106 0 l 1,24,-1
 17 0 l 1,25,-1
 118 474 l 2,26,27
 142 589 142 589 215.5 634.5 c 128,-1,28
 289 680 289 680 417 680 c 0,29,30
 533 680 533 680 664 648 c 1,31,-1
 648 573 l 1,32,-1
 451 353 l 1,33,34
 511 348 511 348 549 305 c 128,-1,35
 587 262 587 262 587 200 c 0,36,37
 587 143 587 143 561 94.5 c 128,-1,38
 535 46 535 46 488 17 c 128,-1,39
 441 -12 441 -12 381 -12 c 0,40,0
 322 -12 322 -12 280 18.5 c 128,-1,1
EndSplineSet
EndChar
StartChar: quoteright
Encoding: 8217 8217 279
Width: 632
GlyphClass: 1
Flags: W
LayerCount: 2
Fore
SplineSet
337 570 m 128,-1,1
 325 588 325 588 325 610 c 0,2,3
 325 639 325 639 345.5 659.5 c 128,-1,4
 366 680 366 680 395 680 c 0,5,6
 425 680 425 680 444 660 c 128,-1,7
 463 640 463 640 463 614 c 0,8,9
 463 601 463 601 459 590.5 c 128,-1,10
 455 580 455 580 446 566 c 2,11,-1
 348 408 l 1,12,-1
 285 408 l 1,13,-1
 370 544 l 1,14,0
 349 552 349 552 337 570 c 128,-1,1
EndSplineSet
EndChar
StartChar: quotedblleft
Encoding: 8220 8220 276
Width: 632
GlyphClass: 1
Flags: W
LayerCount: 2
Fore
SplineSet
413 420.5 m 128,-1,1
 394 440 394 440 394 466 c 0,2,3
 394 486 394 486 410 513 c 2,4,-1
 507 668 l 1,5,-1
 570 668 l 1,6,-1
 485 535 l 1,7,8
 505 526 505 526 517.5 509 c 128,-1,9
 530 492 530 492 530 469 c 0,10,11
 530 441 530 441 510.5 421 c 128,-1,12
 491 401 491 401 462 401 c 0,13,0
 432 401 432 401 413 420.5 c 128,-1,1
212 420.5 m 128,-1,15
 193 440 193 440 193 466 c 0,16,17
 193 486 193 486 209 513 c 2,18,-1
 306 668 l 1,19,-1
 369 668 l 1,20,-1
 284 535 l 1,21,22
 304 526 304 526 316.5 509 c 128,-1,23
 329 492 329 492 329 469 c 0,24,25
 329 441 329 441 309.5 421 c 128,-1,26
 290 401 290 401 261 401 c 0,27,14
 231 401 231 401 212 420.5 c 128,-1,15
EndSplineSet
EndChar
StartChar: quotedblright
Encoding: 8221 8221 277
Width: 632
GlyphClass: 1
Flags: W
LayerCount: 2
Fore
SplineSet
439.5 572 m 128,-1,1
 427 589 427 589 427 612 c 0,2,3
 427 641 427 641 447 660.5 c 128,-1,4
 467 680 467 680 495 680 c 0,5,6
 525 680 525 680 544 660.5 c 128,-1,7
 563 641 563 641 563 615 c 0,8,9
 563 595 563 595 547 568 c 2,10,-1
 450 413 l 1,11,-1
 387 413 l 1,12,-1
 472 546 l 1,13,0
 452 555 452 555 439.5 572 c 128,-1,1
238.5 572 m 128,-1,15
 226 589 226 589 226 612 c 0,16,17
 226 640 226 640 246 660 c 128,-1,18
 266 680 266 680 294 680 c 0,19,20
 324 680 324 680 343 660.5 c 128,-1,21
 362 641 362 641 362 615 c 0,22,23
 362 593 362 593 346 568 c 2,24,-1
 249 413 l 1,25,-1
 186 413 l 1,26,-1
 271 546 l 1,27,14
 251 555 251 555 238.5 572 c 128,-1,15
EndSplineSet
EndChar
StartChar: dagger
Encoding: 8224 8224 298
Width: 632
GlyphClass: 1
Flags: W
LayerCount: 2
Fore
SplineSet
314 425 m 1,0,-1
 127 425 l 1,1,-1
 141 496 l 1,2,-1
 328 496 l 1,3,-1
 365 668 l 1,4,-1
 447 668 l 1,5,-1
 410 496 l 1,6,-1
 597 496 l 1,7,-1
 582 425 l 1,8,-1
 396 425 l 1,9,-1
 305 0 l 1,10,-1
 223 0 l 1,11,-1
 314 425 l 1,0,-1
EndSplineSet
EndChar
StartChar: Euro
Encoding: 8364 8364 305
Width: 632
GlyphClass: 1
Flags: W
LayerCount: 2
Fore
SplineSet
172.5 58 m 128,-1,1
 115 129 115 129 113 241 c 1,2,-1
 22 241 l 1,3,-1
 57 291 l 1,4,-1
 115 291 l 1,5,6
 118 330 118 330 129 378 c 1,7,-1
 50 378 l 1,8,-1
 86 428 l 1,9,-1
 144 428 l 1,10,11
 182 538 182 538 257 610 c 128,-1,12
 332 682 332 682 438 682 c 0,13,14
 515 682 515 682 570 639.5 c 128,-1,15
 625 597 625 597 646 526 c 1,16,-1
 572 501 l 1,17,18
 558 551 558 551 521.5 579.5 c 128,-1,19
 485 608 485 608 429 608 c 0,20,21
 358 608 358 608 307.5 557.5 c 128,-1,22
 257 507 257 507 229 428 c 1,23,-1
 473 428 l 1,24,-1
 437 378 l 1,25,-1
 214 378 l 1,26,27
 201 328 201 328 198 291 c 1,28,-1
 379 291 l 1,29,-1
 344 241 l 1,30,-1
 197 241 l 1,31,32
 200 161 200 161 237.5 111 c 128,-1,33
 275 61 275 61 349 61 c 0,34,35
 402 61 402 61 443.5 88 c 128,-1,36
 485 115 485 115 513 164 c 1,37,-1
 586 133 l 1,38,39
 544 60 544 60 480 23.5 c 128,-1,40
 416 -13 416 -13 342 -13 c 0,41,0
 230 -13 230 -13 172.5 58 c 128,-1,1
EndSplineSet
EndChar
StartChar: uni20B9
Encoding: 8377 8377 306
Width: 632
GlyphClass: 1
Flags: W
LayerCount: 2
Fore
SplineSet
104 290 m 1,0,-1
 115 342 l 1,1,-1
 272 342 l 2,2,3
 335 342 335 342 373.5 368 c 128,-1,4
 412 394 412 394 422 443 c 1,5,-1
 137 443 l 1,6,-1
 148 493 l 1,7,-1
 426 493 l 1,8,9
 422 542 422 542 376.5 568.5 c 128,-1,10
 331 595 331 595 241 595 c 2,11,-1
 170 595 l 1,12,-1
 185 668 l 1,13,-1
 644 668 l 1,14,-1
 633 618 l 1,15,-1
 438 618 l 1,16,17
 511 573 511 573 516 493 c 1,18,-1
 607 493 l 1,19,-1
 596 443 l 1,20,-1
 512 443 l 1,21,22
 500 363 500 363 437.5 318.5 c 128,-1,23
 375 274 375 274 277 272 c 2,24,-1
 221 272 l 1,25,-1
 444 0 l 1,26,-1
 339 0 l 1,27,-1
 104 290 l 1,0,-1
EndSplineSet
EndChar
StartChar: trademark
Encoding: 8482 8482 294
Width: 632
GlyphClass: 1
Flags: W
LayerCount: 2
Fore
SplineSet
176 619 m 1,0,-1
 88 619 l 1,1,-1
 99 668 l 1,2,-1
 330 668 l 1,3,-1
 320 619 l 1,4,-1
 231 619 l 1,5,-1
 172 343 l 1,6,-1
 117 343 l 1,7,-1
 176 619 l 1,0,-1
374 668 m 1,8,-1
 455 668 l 1,9,-1
 484 416 l 1,10,-1
 488 416 l 1,11,-1
 624 668 l 1,12,-1
 711 668 l 1,13,-1
 641 343 l 1,14,-1
 586 343 l 1,15,-1
 642 602 l 1,16,-1
 638 602 l 1,17,-1
 497 343 l 1,18,-1
 447 343 l 1,19,-1
 416 602 l 1,20,-1
 412 602 l 1,21,-1
 356 343 l 1,22,-1
 304 343 l 1,23,-1
 374 668 l 1,8,-1
EndSplineSet
EndChar
StartChar: estimated
Encoding: 8494 8494 301
Width: 632
GlyphClass: 1
Flags: W
LayerCount: 2
Fore
SplineSet
199.5 19 m 128,-1,1
 140 50 140 50 102 111 c 128,-1,2
 64 172 64 172 64 257 c 0,3,4
 64 316 64 316 97 373.5 c 128,-1,5
 130 431 130 431 189 467.5 c 128,-1,6
 248 504 248 504 322 504 c 0,7,8
 392 504 392 504 451 469.5 c 128,-1,9
 510 435 510 435 545 376 c 128,-1,10
 580 317 580 317 580 248 c 1,11,-1
 169 248 l 1,12,-1
 169 77 l 1,13,14
 200 49 200 49 239 33.5 c 128,-1,15
 278 18 278 18 322 18 c 0,16,17
 373 18 373 18 417.5 38.5 c 128,-1,18
 462 59 462 59 493 96 c 1,19,-1
 525 87 l 1,20,21
 489 41 489 41 436 14.5 c 128,-1,22
 383 -12 383 -12 322 -12 c 0,23,0
 259 -12 259 -12 199.5 19 c 128,-1,1
476 277 m 1,24,-1
 476 414 l 1,25,26
 445 442 445 442 405 458 c 128,-1,27
 365 474 365 474 322 474 c 256,28,29
 279 474 279 474 240 458 c 128,-1,30
 201 442 201 442 169 414 c 1,31,-1
 169 277 l 1,32,-1
 476 277 l 1,24,-1
EndSplineSet
EndChar
StartChar: partialdiff
Encoding: 8706 8706 331
Width: 632
GlyphClass: 1
Flags: W
LayerCount: 2
Fore
SplineSet
175 14 m 128,-1,1
 127 40 127 40 100 87.5 c 128,-1,2
 73 135 73 135 73 198 c 0,3,4
 73 273 73 273 105.5 339.5 c 128,-1,5
 138 406 138 406 197.5 446 c 128,-1,6
 257 486 257 486 333 486 c 0,7,8
 397 486 397 486 442 456 c 128,-1,9
 487 426 487 426 499 370 c 1,10,11
 502 443 502 443 468 496 c 128,-1,12
 434 549 434 549 372 577.5 c 128,-1,13
 310 606 310 606 232 608 c 1,14,-1
 247 680 l 1,15,16
 411 664 411 664 491 587.5 c 128,-1,17
 571 511 571 511 571 384 c 0,18,19
 571 295 571 295 543 204 c 128,-1,20
 515 113 515 113 451 50.5 c 128,-1,21
 387 -12 387 -12 286 -12 c 0,22,0
 223 -12 223 -12 175 14 c 128,-1,1
389 94 m 128,-1,24
 429 129 429 129 447.5 179 c 128,-1,25
 466 229 466 229 466 275 c 0,26,27
 466 337 466 337 432 375.5 c 128,-1,28
 398 414 398 414 336 414 c 0,29,30
 279 414 279 414 239 381 c 128,-1,31
 199 348 199 348 179 299 c 128,-1,32
 159 250 159 250 159 201 c 0,33,34
 159 138 159 138 193.5 98.5 c 128,-1,35
 228 59 228 59 290 59 c 0,36,23
 349 59 349 59 389 94 c 128,-1,24
EndSplineSet
EndChar
StartChar: summation
Encoding: 8721 8721 329
Width: 632
GlyphClass: 1
Flags: W
LayerCount: 2
Fore
SplineSet
7 -83 m 1,0,-1
 327 262 l 1,1,-1
 149 589 l 1,2,-1
 166 668 l 1,3,-1
 645 668 l 1,4,-1
 628 589 l 1,5,-1
 239 589 l 1,6,-1
 421 253 l 1,7,-1
 111 -83 l 1,8,-1
 486 -83 l 1,9,-1
 469 -162 l 1,10,-1
 -10 -162 l 1,11,-1
 7 -83 l 1,0,-1
EndSplineSet
EndChar
StartChar: uni2215
Encoding: 8725 8725 310
Width: 632
GlyphClass: 1
Flags: W
LayerCount: 2
Fore
SplineSet
574 668 m 1,0,-1
 680 668 l 1,1,-1
 94 0 l 1,2,-1
 -11 0 l 1,3,-1
 574 668 l 1,0,-1
EndSplineSet
EndChar
StartChar: radical
Encoding: 8730 8730 330
Width: 632
GlyphClass: 1
Flags: W
LayerCount: 2
Fore
SplineSet
130 148 m 1,0,-1
 31 148 l 1,1,-1
 48 225 l 1,2,-1
 199 225 l 1,3,-1
 255 -55 l 1,4,-1
 607 668 l 1,5,-1
 697 668 l 1,6,-1
 291 -162 l 1,7,-1
 195 -162 l 1,8,-1
 130 148 l 1,0,-1
EndSplineSet
EndChar
StartChar: integral
Encoding: 8747 8747 327
Width: 632
GlyphClass: 1
Flags: W
LayerCount: 2
Fore
SplineSet
90 -158 m 128,-1,1
 65 -143 65 -143 65 -113 c 0,2,3
 65 -91 65 -91 80.5 -75.5 c 128,-1,4
 96 -60 96 -60 119 -60 c 0,5,6
 140 -60 140 -60 153.5 -72 c 128,-1,7
 167 -84 167 -84 167 -105 c 0,8,9
 167 -116 167 -116 162 -129 c 1,10,11
 195 -122 195 -122 214 -38 c 2,12,-1
 331 492 l 2,13,14
 355 597 355 597 395 639 c 128,-1,15
 435 681 435 681 489 681 c 0,16,17
 522 681 522 681 547.5 666 c 128,-1,18
 573 651 573 651 573 622 c 0,19,20
 573 601 573 601 557.5 585.5 c 128,-1,21
 542 570 542 570 519 570 c 0,22,23
 498 570 498 570 484.5 582 c 128,-1,24
 471 594 471 594 471 614 c 0,25,26
 471 625 471 625 476 638 c 1,27,28
 443 631 443 631 424 547 c 2,29,-1
 307 17 l 2,30,31
 283 -89 283 -89 243 -131 c 128,-1,32
 203 -173 203 -173 149 -173 c 0,33,0
 115 -173 115 -173 90 -158 c 128,-1,1
EndSplineSet
EndChar
StartChar: approxequal
Encoding: 8776 8776 322
Width: 632
GlyphClass: 1
Flags: W
LayerCount: 2
Fore
SplineSet
103.5 196 m 128,-1,1
 140 229 140 229 195 229 c 0,2,3
 224 229 224 229 249 220.5 c 128,-1,4
 274 212 274 212 307 195 c 0,5,6
 339 180 339 180 359 172.5 c 128,-1,7
 379 165 379 165 401 165 c 0,8,9
 464 165 464 165 483 234 c 1,10,-1
 545 215 l 1,11,12
 527 157 527 157 491 124.5 c 128,-1,13
 455 92 455 92 400 92 c 0,14,15
 371 92 371 92 345.5 101 c 128,-1,16
 320 110 320 110 287 126 c 0,17,18
 257 140 257 140 236 147.5 c 128,-1,19
 215 155 215 155 193 155 c 0,20,21
 162 155 162 155 142 138 c 128,-1,22
 122 121 122 121 111 86 c 1,23,-1
 49 105 l 1,24,0
 67 163 67 163 103.5 196 c 128,-1,1
145 388.5 m 128,-1,26
 181 421 181 421 236 421 c 0,27,28
 265 421 265 421 289.5 412.5 c 128,-1,29
 314 404 314 404 349 387 c 0,30,31
 379 373 379 373 400 365.5 c 128,-1,32
 421 358 421 358 443 358 c 0,33,34
 474 358 474 358 494 374.5 c 128,-1,35
 514 391 514 391 525 426 c 1,36,-1
 587 408 l 1,37,38
 569 350 569 350 532.5 317 c 128,-1,39
 496 284 496 284 441 284 c 0,40,41
 412 284 412 284 387 292.5 c 128,-1,42
 362 301 362 301 329 318 c 0,43,44
 297 333 297 333 277 340.5 c 128,-1,45
 257 348 257 348 234 348 c 0,46,47
 173 348 173 348 153 279 c 1,48,-1
 91 298 l 1,49,25
 109 356 109 356 145 388.5 c 128,-1,26
EndSplineSet
EndChar
StartChar: greaterequal
Encoding: 8805 8805 319
Width: 632
GlyphClass: 1
Flags: W
LayerCount: 2
Fore
SplineSet
70 197 m 1,0,-1
 454 304 l 1,1,-1
 115 412 l 1,2,-1
 131 491 l 1,3,-1
 570 338 l 1,4,-1
 554 264 l 1,5,-1
 51 112 l 1,6,-1
 70 197 l 1,0,-1
44 77 m 1,7,-1
 514 77 l 1,8,-1
 498 0 l 1,9,-1
 28 0 l 1,10,-1
 44 77 l 1,7,-1
EndSplineSet
EndChar
StartChar: lozenge
Encoding: 9674 9674 334
Width: 632
GlyphClass: 1
Flags: W
LayerCount: 2
Fore
SplineSet
104 315 m 1,0,-1
 413 702 l 1,1,-1
 556 315 l 1,2,-1
 248 -72 l 1,3,-1
 104 315 l 1,0,-1
473 323 m 1,4,-1
 386 557 l 1,5,-1
 187 307 l 1,6,-1
 275 74 l 1,7,-1
 473 323 l 1,4,-1
EndSplineSet
EndChar
StartChar: musicalnote
Encoding: 9834 9834 287
Width: 632
GlyphClass: 1
Flags: W
LayerCount: 2
Fore
SplineSet
115.5 22.5 m 128,-1,1
 84 55 84 55 84 101 c 256,2,3
 84 147 84 147 116.5 179.5 c 128,-1,4
 149 212 149 212 195 212 c 0,5,6
 233 212 233 212 260 191 c 1,7,-1
 260 668 l 1,8,-1
 310 668 l 1,9,10
 314 623 314 623 340 592 c 128,-1,11
 366 561 366 561 427 512 c 0,12,13
 484 467 484 467 515.5 426 c 128,-1,14
 547 385 547 385 547 331 c 0,15,16
 547 278 547 278 487 209 c 1,17,-1
 483 210 l 1,18,19
 472 291 472 291 426 345 c 128,-1,20
 380 399 380 399 310 426 c 1,21,-1
 310 129 l 2,22,23
 310 62 310 62 277 26 c 128,-1,24
 244 -10 244 -10 192 -10 c 0,25,0
 147 -10 147 -10 115.5 22.5 c 128,-1,1
EndSplineSet
EndChar
StartChar: gravecomb.case
Encoding: 65543 -1 341
Width: 0
GlyphClass: 4
Flags: W
AnchorPoint: "Anchor-5" 496 863 basemark 0
AnchorPoint: "Anchor-5" 454 668 mark 0
AnchorPoint: "Anchor-1" 454 668 mark 0
LayerCount: 2
Fore
SplineSet
358 795.5 m 128,-1,1
 351 805 351 805 351 815 c 0,2,3
 351 830 351 830 362 841 c 128,-1,4
 373 852 373 852 388 852 c 0,5,6
 398 852 398 852 407 845.5 c 128,-1,7
 416 839 416 839 428 824 c 2,8,-1
 498 736 l 1,9,-1
 433 736 l 1,10,-1
 383 773 l 2,11,0
 365 786 365 786 358 795.5 c 128,-1,1
EndSplineSet
EndChar
StartChar: uni0307.case
Encoding: 65541 -1 338
Width: 0
GlyphClass: 4
Flags: W
AnchorPoint: "Anchor-5" 442 841 basemark 0
AnchorPoint: "Anchor-5" 406 668 mark 0
AnchorPoint: "Anchor-1" 406 668 mark 0
LayerCount: 2
Fore
SplineSet
392.5 747.5 m 128,-1,1
 376 764 376 764 376 786 c 0,2,3
 376 809 376 809 392.5 825 c 128,-1,4
 409 841 409 841 431 841 c 256,5,6
 453 841 453 841 469 824.5 c 128,-1,7
 485 808 485 808 485 786 c 256,8,9
 485 764 485 764 469 747.5 c 128,-1,10
 453 731 453 731 431 731 c 256,11,0
 409 731 409 731 392.5 747.5 c 128,-1,1
EndSplineSet
EndChar
StartChar: uni030C.alt
Encoding: 65546 -1 346
Width: 0
GlyphClass: 4
Flags: W
AnchorPoint: "Anchor-3" 303 496 mark 0
LayerCount: 2
Fore
SplineSet
401 706 m 128,-1,1
 414 718 414 718 433 718 c 0,2,3
 448 718 448 718 457.5 710 c 128,-1,4
 467 702 467 702 467 691 c 0,5,6
 467 682 467 682 461.5 670 c 128,-1,7
 456 658 456 658 443 638 c 2,8,-1
 383 535 l 1,9,-1
 328 535 l 1,10,-1
 378 668 l 2,11,0
 388 694 388 694 401 706 c 128,-1,1
EndSplineSet
EndChar
